<svg width="346" height="360" viewBox="0 0 346 360" fill="none" xmlns="http://www.w3.org/2000/svg">
<path d="M27.5596 220.708C29.503 219.639 43.4956 211.915 45.6154 210.58C48.6996 208.172 47.7281 204.863 47.5805 202.67C47.467 201.511 47.359 200.408 47.2482 199.278C112.054 203.245 110.671 198.447 46.8965 195.691C45.5142 181.592 45.5916 182.069 45.0081 181.042C44.4659 180.004 43.5656 179.169 42.6034 178.695C26.7695 170.711 25.075 169.989 23.6978 170.403C22.6121 170.615 22.1972 171.051 22.2473 171.139C21.9546 170.5 6.83862 176.955 6.14805 177.246C-0.710587 180.162 0.511065 179.064 0.988613 204.722C1.00067 207.526 0.811274 210.496 4.08321 212.296C24.1006 223.135 22.7774 223.092 27.5596 220.708ZM23.6979 195.48L22.3837 194.705C10.5562 187.705 1.38258 181.331 1.89409 180.467C2.74823 179.023 23.2183 190.974 24.5434 191.759C51.3445 174.707 49.6477 179.049 25.3876 195.547C26.6845 201.491 25.7299 220.848 23.6707 220.777C21.689 220.708 21.8968 201.64 23.6979 195.48Z" fill="black"/>
<path d="M24.5421 191.759C24.5415 191.759 24.5418 191.76 24.541 191.76C24.6043 191.796 24.6204 191.805 24.5421 191.759Z" fill="black"/>
<path d="M24.5394 191.761C24.54 191.76 24.5411 191.76 24.5419 191.76C24.5316 191.754 24.5537 191.767 24.5391 191.758L24.5394 191.761Z" fill="black"/>
<path d="M345.663 202.743C343.119 175.886 343.289 176.281 342.497 174.868C341.819 173.624 340.744 172.55 339.557 171.984C317.279 160.619 317.166 160.732 315.244 161.015C313.943 161.241 313.378 161.75 313.378 161.863C313.038 161.184 290.648 170.966 289.856 171.305C288.725 171.814 287.594 172.663 286.859 173.793C285.389 175.999 285.672 175.942 286.181 198.616C277.483 198.337 255.434 198.169 237.636 198.435C237.609 191.549 237.488 159.104 237.367 142.308C237.502 141.828 237.06 142.013 236.751 142.046C236.182 142.123 232.217 142.66 232.787 142.583C231.744 142.54 215.745 145.489 196.949 136.61C199.862 132.583 210.75 113.836 230.09 78.7454C259.549 78.5759 250.106 78.6892 274.194 78.2367C274.363 86.9442 274.307 88.5276 274.533 89.4886C274.872 91.0717 275.946 92.4852 277.416 93.3334C294.832 102.776 296.019 103.85 298.846 102.72C300.147 102.267 317.392 92.5984 318.919 91.5807C322.029 89.2059 321.067 85.8698 320.898 83.6646C318.806 62.122 318.975 63.1962 318.353 62.0657C317.788 61.0477 316.883 60.1996 315.922 59.6906C300.09 51.7183 298.394 50.9831 297.037 51.4356C296.019 51.6617 295.567 52.001 295.567 52.1707C295.284 51.4918 277.982 58.8992 277.303 59.1819C275.268 60.0298 273.854 62.1219 273.967 64.4403C274.024 68.5111 274.081 71.9039 274.137 75.6355C250.106 75.183 260.001 75.2963 227.942 75.1268C208.897 110.547 198.226 131.555 196.415 136.363C189.843 133.187 184.537 129.382 180.522 125.778C171.008 116.962 167.805 110.234 167.473 110.489C166.829 110.846 186.376 148.207 230.824 145.35C231.391 145.299 235.043 144.966 234.477 145.018C235.043 144.782 234.656 142.042 234.344 228.864C234.452 229.07 233.964 230.449 233.753 231.244C232.655 234.95 231.242 238.61 229.58 242.197C226.248 249.369 221.764 256.179 216.275 262.286C205.285 274.486 189.882 283.475 172.799 286.952L170.189 287.432L167.277 286.528C165.214 285.846 163.178 285.107 161.173 284.306C157.169 282.693 153.295 280.832 149.58 278.755C142.144 274.603 135.396 269.509 129.455 263.797C117.562 252.344 109.18 238.275 104.333 223.918C104.192 223.487 103.977 222.874 104.034 223.008L103.982 221.57L103.877 218.706C103.808 216.803 103.738 214.912 103.669 213.035C103.531 209.279 103.394 205.574 103.259 201.922C102.712 187.393 102.072 170.137 101.144 146.954C101.186 146.716 100.992 146.401 101.234 146.395C101.833 146.21 138.245 144.516 164.277 114.669C166.53 112.055 167.56 110.561 167.473 110.489C167.367 110.401 166.15 111.736 163.74 114.17C157.092 120.81 150.576 126.014 142.449 130.767C130.324 109.606 111.405 77.6664 111.181 77.2757C101.626 77.0494 92.5788 76.8232 84.3238 76.5969C61.9329 76.3142 63.4596 76.3142 58.2575 76.3142C57.2397 65.9106 57.1831 65.2883 56.6179 64.2706C56.0525 63.2529 55.1477 62.405 54.1866 61.8958C38.4676 53.9798 36.6582 53.1884 35.3013 53.6406C34.227 53.8104 33.8311 54.2627 33.8311 54.3756C33.5484 53.6971 18.2819 60.2563 15.568 61.3868C13.5326 62.235 12.1755 64.3271 12.2322 66.6457C12.2884 68.0026 12.5149 90.3932 12.7975 91.6939C13.1934 93.2769 14.2111 94.6905 15.6813 95.5387C32.7006 104.698 34.1708 106.056 37.1107 104.924C38.0156 104.642 37.054 105.151 50.7377 97.5174C60.9152 91.6937 60.0103 94.1816 58.4839 78.4626C74.4852 79.4803 96.5369 80.3287 109.09 80.8374C110.707 83.5154 128.334 112.487 140.643 131.779C119.301 143.667 100.363 143.702 99.1746 143.953C98.951 144.06 98.3325 143.816 98.4313 144.212L98.4593 145.164C98.5322 147.801 98.6165 150.847 98.7481 155.712C98.2056 155.797 97.8373 155.881 97.8373 155.983C100.382 246.733 100.043 234.294 100.552 236.725C104.849 249.673 111.521 261.434 120.058 271.329C114.178 281.337 105.471 296.604 94.275 317.015C89.4125 316.676 84.8325 316.393 80.4224 316.111C79.065 302.088 79.1217 301.692 78.3303 300.222C77.5386 298.809 76.3511 297.678 74.9942 296.999C50.6243 284.447 49.6066 283.938 47.1754 284.277C45.7052 284.56 45.0268 285.069 45.0268 285.182C44.7441 284.56 22.014 294.512 21.3355 294.794C18.3952 296.095 16.2465 296.66 14.7764 299.035C13.5327 300.901 12.9674 299.77 14.2677 337.653C14.3244 338.445 14.2677 339.406 14.5504 340.537C15.0029 342.685 16.473 344.608 18.3952 345.682C26.4808 350.036 29.9301 351.902 42.7084 358.744C44.4049 359.874 47.3449 360.44 49.6068 359.592C51.1335 359.083 77.0864 344.608 79.2916 343.194C83.4191 339.971 82.1187 335.674 81.8924 332.169C81.4969 327.758 81.101 323.574 80.7052 319.503C85.7375 319.899 90.8827 320.295 96.3109 320.747C108.015 299.657 116.44 283.938 121.812 273.421C129.162 281.563 137.756 288.405 147.199 293.663C158.395 299.883 168.346 302.597 168.968 302.823C170.268 302.936 170.664 302.597 171.23 302.597C172.134 302.258 191.472 300.052 210.018 284.447C216.068 300.166 223.192 317.75 223.532 318.598C238.119 318.146 252.142 317.637 266.73 316.902C266.956 327.475 266.165 326.005 276.285 331.49C289.63 338.727 288.725 339.236 295.058 335.561C309.42 327.588 309.872 327.306 311.455 326.345C314.508 323.913 313.547 320.577 313.377 318.429C311.455 298.582 311.511 298.017 310.833 296.829C310.267 295.755 309.363 294.907 308.402 294.455C292.57 286.482 290.873 285.747 289.517 286.143C288.442 286.369 288.046 286.821 288.046 286.878C287.82 286.312 275.72 291.401 269.783 293.946C267.804 294.794 266.39 296.829 266.447 299.204C266.56 306.951 266.617 308.703 266.673 314.018C248.523 314.188 226.585 314.866 225.963 314.923C225.624 314.131 218.725 297.338 212.28 282.468C214.315 280.658 216.351 278.623 218.329 276.418C226.755 267.032 232.974 255.836 236.423 243.962C237.128 240.551 237.199 242.717 237.101 231.942C237.972 228.618 237.773 234.342 237.648 201.626C243.688 201.78 250.456 201.838 257.683 201.838C268.482 201.838 278.434 201.669 286.237 201.442C286.407 209.189 286.407 209.245 286.576 210.093C287.028 212.016 288.329 213.712 290.082 214.73C296.867 218.348 299.694 219.875 311.229 226.039C312.699 227.056 315.356 227.622 317.449 226.83C318.749 226.378 341.196 213.882 343.288 212.525C347.02 209.642 345.889 205.797 345.663 202.743ZM297.546 72.5827C297.772 72.7522 297.885 72.8087 297.885 72.8087C300.203 71.282 302.465 69.8684 304.613 68.4549C307.045 66.985 309.193 65.741 311.059 64.6666C314.735 62.6312 317.109 61.5568 317.392 61.9527C317.675 62.3485 315.752 64.1579 312.416 66.7587C310.777 68.0594 308.741 69.5858 306.479 71.2258C305.292 72.0172 304.105 72.8654 302.86 73.7699C301.503 74.6748 300.147 75.5793 298.733 76.5408C299.186 78.8589 299.468 83.3256 299.298 88.4146C299.016 95.8217 297.998 101.815 296.98 101.815C296.019 101.758 295.397 95.7083 295.623 88.3013C295.793 83.2127 296.358 78.8021 297.037 76.484L295.736 75.749C283.862 68.7377 274.703 62.3485 275.211 61.5002C275.72 60.6523 285.729 65.5715 297.546 72.5827ZM36.9974 78.7688C37.4943 81.0451 37.7376 85.4773 37.5599 90.625C37.3042 98.0458 36.2833 104.033 35.2805 103.999C34.2774 103.964 33.6716 97.9206 33.9274 90.4998C34.105 85.3463 34.6541 80.9372 35.3077 78.703L33.9933 77.9271C22.166 70.9273 12.9924 64.5525 13.5036 63.6886C14.015 62.8248 24.0173 67.7992 35.8448 74.799C36.1378 74.9726 36.2043 75.0124 36.1492 74.9803L36.1495 74.9834C37.4175 74.1766 54.824 62.8868 55.667 64.1523C56.4258 65.2907 38.2194 77.9375 36.9974 78.7688ZM69.7363 306.442C67.0787 308.365 64.0254 310.513 60.8025 312.888C57.1275 315.376 53.2822 317.977 49.2114 320.804C49.7768 323.914 49.9464 330.982 49.6639 339.124C49.2681 350.093 48.1372 359.027 47.176 359.027C46.1583 359.027 45.6493 350.037 46.0451 339.011C46.2712 330.812 47.0063 323.744 47.7414 320.691L45.706 319.504C28.1213 309.1 14.2684 299.94 14.7771 299.092C15.2861 298.244 29.9307 305.99 47.5154 316.394L48.4766 316.903V316.959C52.152 314.528 55.7141 312.266 58.9368 310.174C62.3862 308.026 65.5525 306.103 68.3796 304.35C73.7511 301.127 77.2002 299.375 77.4829 299.77C77.7652 300.166 74.7686 302.654 69.7363 306.442ZM290.082 307.347C290.308 307.46 290.365 307.516 290.365 307.516C292.74 306.046 295.001 304.576 297.15 303.219C299.525 301.749 301.673 300.449 303.539 299.431C307.215 297.339 309.589 296.265 309.872 296.717C310.155 297.112 308.232 298.922 304.896 301.523C303.257 302.823 301.221 304.294 298.959 305.933C297.772 306.781 296.585 307.63 295.34 308.478C293.983 309.382 292.626 310.344 291.213 311.305C291.722 313.566 291.948 318.033 291.779 323.179C291.496 330.529 290.478 336.523 289.517 336.523C288.499 336.523 287.877 330.473 288.16 323.066C288.329 317.977 288.838 313.51 289.517 311.248L288.216 310.457C276.399 303.445 267.182 297.112 267.691 296.208C268.257 295.36 278.208 300.336 290.082 307.347ZM334.965 180.472C332.785 182.121 330.149 184.039 327.182 186.134C324.024 188.3 320.643 190.619 317.113 193.041C317.637 195.834 317.862 201.824 317.622 208.803C317.291 218.41 316.209 226.171 315.206 226.136C314.202 226.102 313.658 218.285 313.989 208.678C314.23 201.685 314.87 195.712 315.587 192.969L313.812 191.922C298.5 182.859 286.501 174.812 287.012 173.948C287.523 173.085 300.351 179.731 315.664 188.794L316.348 189.199L316.348 189.202C319.52 187.16 322.538 185.217 325.36 183.4C328.434 181.467 331.219 179.773 333.58 178.394C338.303 175.637 341.331 174.146 341.599 174.548C341.867 174.951 339.327 177.173 334.965 180.472Z" fill="black"/>
<path d="M191.587 220.988C191.391 217.102 191.18 211.302 191.02 204.226C190.952 200.649 190.878 196.769 190.798 192.622C190.779 191.614 190.76 190.591 190.74 189.552C190.681 188.888 190.343 188.255 189.811 187.829C189.179 187.392 188.804 187.247 187.67 187.299C186.527 187.311 185.369 187.323 184.197 187.336C174.782 187.38 164.492 187.428 153.678 187.479C152.921 187.478 152.2 187.871 151.789 188.499C151.591 188.812 151.458 189.162 151.427 189.531L151.412 191.354C151.403 193.989 151.393 196.586 151.384 199.139C151.348 204.236 151.312 209.156 151.278 213.857C151.252 216.199 151.227 218.485 151.202 220.711C151.114 222.157 152.331 223.35 153.668 223.359C157.813 223.439 161.692 223.513 165.267 223.582C179.456 223.911 188.231 224.365 188.231 224.867C188.225 224.719 188.799 224.681 189.645 224.22C190.45 223.785 191.602 222.685 191.587 220.988Z" fill="black"/>
<path d="M167.507 174.695C163.399 174.68 159.221 174.664 154.976 174.648C154.57 165.875 154.047 160.286 153.513 160.291C152.98 160.295 152.551 165.878 152.293 174.638C151.306 174.634 150.344 174.631 149.351 174.627C144.726 174.574 140.36 177.556 138.67 181.71C137.766 183.693 137.705 186.173 137.765 187.857C115.054 188.425 118.103 189.671 137.773 190.533C137.776 191.501 137.779 192.476 137.781 193.434C137.798 196.714 137.814 199.923 137.83 203.093C128.771 203.389 123.043 203.83 123.041 204.347C123.039 204.864 128.774 205.349 137.844 205.715C137.858 208.675 137.873 211.611 137.887 214.46C137.894 215.297 137.9 216.081 137.907 216.908C129.03 217.065 123.418 217.416 123.408 217.93C123.398 218.446 129.022 219.017 137.927 219.522C137.939 221.097 137.952 222.716 137.964 224.251C137.971 227.945 139.87 231.437 142.686 233.403C145.4 235.588 149.28 235.641 151.792 235.487C152.178 235.481 152.522 235.476 152.904 235.47C153.291 242.797 153.765 247.305 154.247 247.301C154.729 247.297 155.128 242.772 155.391 235.434C156.849 235.412 158.356 235.39 159.746 235.37C162.747 235.321 165.519 235.269 168.165 235.215C168.548 242.256 169.012 246.571 169.483 246.567C169.955 246.563 170.347 242.225 170.61 235.161C175.418 235.056 179.567 234.942 182.891 234.821C183.265 241.443 183.713 245.469 184.168 245.465C184.625 245.462 185.007 241.394 185.269 234.724C189.901 234.525 192.552 234.31 192.552 234.084C192.548 234.177 193.349 234.389 194.89 234.17C196.386 233.929 198.763 233.158 200.765 230.821C201.743 229.666 202.61 228.14 203.013 226.3C203.375 224.461 203.276 222.7 203.352 220.783C211.993 220.623 217.384 220.272 217.394 219.766C217.404 219.26 212.032 218.699 203.404 218.202C203.472 214.721 203.546 210.989 203.627 206.862C203.63 206.574 203.635 206.251 203.639 205.96C212.549 205.665 218.126 205.226 218.128 204.714C218.13 204.203 212.569 203.721 203.674 203.357C203.727 199.425 203.781 195.309 203.84 190.911C213.082 190.622 218.86 190.178 218.862 189.662C218.864 189.144 213.093 188.658 203.857 188.286C203.869 185.629 204.036 183.3 202.371 180.484C200.564 177.273 196.963 174.927 193.016 174.792C190.4 174.782 187.695 174.772 184.984 174.762C184.568 164.855 184.007 158.451 183.434 158.456C182.862 158.46 182.41 164.858 182.161 174.751C178.278 174.736 174.294 174.721 170.248 174.706C169.837 165.472 169.298 159.552 168.749 159.557C168.2 159.561 167.762 165.475 167.507 174.695ZM184.194 183.987C185.366 183.999 186.524 184.011 187.668 184.023C188.808 183.925 190.774 184.338 191.85 185.37C193.033 186.365 193.756 187.842 193.838 189.33C193.828 190.444 193.819 191.542 193.81 192.622C193.73 196.769 193.656 200.649 193.588 204.226C193.417 211.338 193.241 217.021 192.997 221.069C192.723 223.467 190.962 224.616 189.921 224.898C188.804 225.202 188.219 224.963 188.228 224.867C188.228 225.369 179.453 225.823 165.264 226.152C161.685 226.22 157.803 226.294 153.654 226.373C150.753 226.509 147.905 223.829 148.003 220.711C147.978 218.485 147.952 216.199 147.926 213.857C147.892 209.157 147.857 204.236 147.82 199.14C147.811 196.586 147.802 193.989 147.793 191.355C147.802 190.624 147.764 190.194 147.814 189.211C147.893 188.255 148.228 187.317 148.751 186.507C149.796 184.88 151.71 183.832 153.674 183.844C164.489 183.895 174.779 183.943 184.194 183.987Z" fill="black"/>
<path d="M203.25 253.188C189.095 263.712 174.975 267.575 175.306 268.649C175.353 269.546 190.537 267.133 205.4 256.118C220.366 245.244 227.223 231.484 226.381 231.17C225.455 230.531 217.535 242.842 203.25 253.188Z" fill="black"/>
<path d="M114.882 159.366C114.705 160.253 129.239 161.546 145.274 154.503C161.378 147.615 170.37 136.125 169.602 135.648C168.83 134.837 159.116 144.662 143.829 151.168C128.63 157.876 114.819 158.249 114.882 159.366Z" fill="black"/>
<path d="M69.5939 138.311C71.1089 139.714 73.8518 140.645 76.6513 139.728C79.4211 138.908 81.9335 135.982 81.899 132.494C81.9335 129.006 79.4211 126.08 76.6513 125.26C73.8518 124.344 71.1089 125.274 69.5939 126.677C68.0219 128.083 67.5153 129.773 67.476 130.846C67.4373 131.948 67.7427 132.499 67.9715 132.494C68.5137 132.561 68.7149 130.191 71.1441 128.727C72.297 128.029 73.9884 127.756 75.5173 128.412C77.0371 129.028 78.2779 130.644 78.2641 132.494C78.2779 134.344 77.0373 135.961 75.5173 136.576C73.9886 137.232 72.2972 136.959 71.1441 136.261C68.7149 134.797 68.5137 132.428 67.9715 132.494C67.7427 132.489 67.4373 133.04 67.476 134.142C67.5153 135.215 68.0218 136.905 69.5939 138.311Z" fill="black"/>
<path d="M169.622 329.431C166.822 328.514 164.08 329.445 162.565 330.848C160.993 332.254 160.486 333.943 160.447 335.016C160.408 336.118 160.713 336.669 160.942 336.664C161.484 336.731 161.686 334.361 164.115 332.897C165.268 332.199 166.959 331.926 168.488 332.582C170.008 333.198 171.249 334.815 171.235 336.664C171.248 338.514 170.008 340.131 168.488 340.747C166.959 341.402 165.268 341.13 164.115 340.431C161.686 338.967 161.484 336.598 160.942 336.664C160.713 336.659 160.408 337.21 160.447 338.312C160.486 339.385 160.993 341.075 162.565 342.481C164.08 343.884 166.822 344.815 169.622 343.898C172.392 343.078 174.904 340.152 174.87 336.664C174.904 333.177 172.392 330.251 169.622 329.431Z" fill="black"/>
<path d="M148.468 26.5568C151.897 12.1237 153.885 0.23541 152.908 0.00344481C151.931 -0.228521 148.36 11.2837 144.932 25.7167C141.504 40.1498 139.516 52.0381 140.493 52.2703C141.469 52.5023 145.04 40.9898 148.468 26.5568Z" fill="black"/>
<path d="M148.651 55.1428C149.382 55.8305 155.11 50.9317 161.445 44.2008C167.779 37.4699 172.322 31.456 171.591 30.7678C170.86 30.08 165.132 34.9788 158.798 41.7097C152.463 48.4408 147.92 54.4547 148.651 55.1428Z" fill="black"/>
<path d="M161.77 65.9413C162.352 66.7596 172.641 60.4412 184.751 51.8291C196.862 43.2173 206.208 35.5729 205.626 34.7549C205.045 33.9366 194.755 40.2549 182.645 48.8671C170.534 57.4789 161.188 65.1234 161.77 65.9413Z" fill="black"/>
</svg>
