<svg width="140" height="140" viewBox="0 0 140 140" fill="none" xmlns="http://www.w3.org/2000/svg">
<path d="M137.263 35.0968L71.3647 11.8461C70.4818 11.5344 69.5185 11.5344 68.6356 11.8461L2.73711 35.0968C1.09868 35.6748 0.00219078 37.2225 3.2777e-06 38.9599C-0.00218422 40.6973 1.09075 42.2474 2.72782 42.8293L68.6263 66.2566C69.0706 66.4146 69.5354 66.4937 70 66.4937C70.4648 66.4937 70.9294 66.4146 71.3737 66.2566L137.272 42.8293C138.909 42.2474 140.002 40.6973 140 38.9599C139.998 37.2225 138.901 35.6748 137.263 35.0968Z" fill="#7FBF80"/>
<path d="M130.149 89.8444V54.0679L121.946 56.9841V89.8444C119.476 91.2666 117.811 93.9312 117.811 96.9869C117.811 100.042 119.476 102.707 121.946 104.129V124.286C121.946 126.551 123.783 128.388 126.048 128.388C128.313 128.388 130.149 126.551 130.149 124.286V104.13C132.62 102.708 134.285 100.043 134.285 96.9872C134.285 93.9315 132.62 91.2666 130.149 89.8444Z" fill="#7FBF80"/>
<path d="M69.9997 74.6967C68.5918 74.6967 67.2052 74.4575 65.8782 73.9858L28.832 60.8157V78.8647C28.832 83.2805 33.4386 87.0148 42.5239 89.9636C50.4429 92.5339 60.2008 93.9495 69.9997 93.9495C79.7986 93.9495 89.5562 92.5339 97.4755 89.9636C106.561 87.0148 111.167 83.2805 111.167 78.8647V60.8157L74.1215 73.9858C72.7942 74.4575 71.4076 74.6967 69.9997 74.6967Z" fill="#7FBF80"/>
</svg>
