<svg width="140" height="140" viewBox="0 0 140 140" fill="none" xmlns="http://www.w3.org/2000/svg">
<path fill-rule="evenodd" clip-rule="evenodd" d="M44.6411 77.2937V111.789C44.6411 111.93 44.5266 112.045 44.386 112.045H29.7028C29.5622 112.045 29.4477 111.93 29.4477 111.789V77.2937C29.4477 77.1532 29.5622 77.0386 29.7028 77.0386H44.386C44.5266 77.0386 44.6411 77.1532 44.6411 77.2937ZM89.6799 18.886L72.0766 25.7171C71.9764 25.7561 71.9139 25.8476 71.9139 25.9549V32.977C71.9139 33.0912 71.9859 33.1881 72.0954 33.2211C72.8427 33.4465 73.5682 33.7949 74.2469 34.2658L118.894 65.2478C120.218 66.1665 120.943 67.5525 120.943 69.1639V69.9359C120.943 71.7407 119.471 73.2127 117.666 73.2127H22.3354C20.5306 73.2127 19.0586 71.7407 19.0586 69.9359V69.1639C19.0586 67.5525 19.7838 66.1665 21.1076 65.2478L65.7548 34.2658C66.4335 33.7949 67.159 33.4465 67.9063 33.2211C68.0158 33.1881 68.0877 33.0912 68.0877 32.977V9.73727C68.0877 8.44339 69.3892 7.38723 70.8334 8.01471C70.8368 8.01611 70.8393 8.01723 70.8426 8.01863L89.6799 15.3286C91.3087 15.9597 91.2907 18.2627 89.6799 18.886ZM22.9313 115.805H117.07C119.203 115.805 120.943 117.544 120.943 119.677V128.298C120.943 130.431 119.203 132.171 117.07 132.171H22.9313C20.7982 132.171 19.0586 130.431 19.0586 128.298V119.677C19.0583 117.544 20.7982 115.805 22.9313 115.805ZM70.2434 43.232C70.209 43.125 70.1132 43.0553 70.0007 43.0553C69.8881 43.0553 69.7926 43.125 69.7579 43.232L67.0276 51.6897C66.9929 51.7969 66.8972 51.8666 66.7846 51.8663L57.8971 51.8493C57.7846 51.849 57.6888 51.9184 57.6541 52.0254C57.6194 52.1323 57.656 52.2449 57.747 52.3107L64.947 57.521C65.0382 57.587 65.0749 57.6996 65.0399 57.8068L62.2774 66.2539C62.2424 66.3608 62.2788 66.4734 62.3698 66.5395C62.4608 66.6055 62.579 66.6055 62.67 66.5392L69.85 61.3015C69.941 61.2351 70.0595 61.2351 70.1508 61.3015L77.3308 66.5392C77.4218 66.6055 77.54 66.6055 77.631 66.5395C77.722 66.4734 77.7584 66.3608 77.7234 66.2539L74.9609 57.8068C74.9259 57.6999 74.9623 57.587 75.0538 57.521L82.2537 52.3107C82.345 52.2446 82.3814 52.1323 82.3467 52.0254C82.312 51.9184 82.2162 51.849 82.1037 51.8493L73.2162 51.8663C73.1034 51.8666 73.0076 51.7969 72.9732 51.6897L70.2434 43.232ZM110.553 77.2937V111.789C110.553 111.93 110.439 112.045 110.298 112.045H95.6151C95.4745 112.045 95.36 111.93 95.36 111.789V77.2937C95.36 77.1532 95.4745 77.0386 95.6151 77.0386H110.298C110.439 77.0386 110.553 77.1532 110.553 77.2937ZM77.5974 77.2937V111.789C77.5974 111.93 77.4828 112.045 77.3423 112.045H62.6591C62.5185 112.045 62.404 111.93 62.404 111.789V77.2937C62.404 77.1532 62.5185 77.0386 62.6591 77.0386H77.3423C77.4828 77.0386 77.5974 77.1532 77.5974 77.2937Z" fill="#DD5350"/>
</svg>
