<svg width="140" height="140" viewBox="0 0 140 140" fill="none" xmlns="http://www.w3.org/2000/svg">
<path d="M137.487 88.7067C137.487 91.0993 135.528 93.0582 133.135 93.0582H84.3727C81.9795 93.0582 80.0215 91.0998 80.0215 88.7067V75.1086C81.7272 76.3287 83.8138 77.0481 86.0633 77.0481H102.699V78.3199C102.699 78.975 103.236 79.5112 103.89 79.5112H113.618C114.272 79.5112 114.81 78.9739 114.81 78.3199V77.0481H131.445C133.695 77.0481 135.781 76.3287 137.487 75.1086V88.7067ZM22.7959 81.6006H75.6465C75.6465 72.1995 75.653 62.7982 75.653 53.3971C75.6959 52.3791 75.9595 51.4166 76.3976 50.5575C70.7295 46.9675 64.0245 44.8839 56.8556 44.8839C37.587 44.8839 21.6611 59.9263 20.2414 78.8479C20.1296 80.3428 21.2966 81.6006 22.7959 81.6006ZM56.8556 42.1493C67.8152 42.1493 76.7 33.2648 76.7 22.3051C76.6997 11.3455 67.8152 2.46094 56.8556 2.46094C45.8959 2.46094 37.0114 11.3455 37.0114 22.3051C37.0114 33.2648 45.8959 42.1493 56.8556 42.1493ZM80.0212 66.6312V53.6919C80.0212 52.2873 81.1704 51.138 82.5751 51.138H95.2607V46.2459C95.2607 43.1555 97.7809 40.6355 100.871 40.6355H116.637C119.727 40.6355 122.248 43.1564 122.248 46.2459V51.138H134.933C136.338 51.138 137.487 52.2873 137.487 53.6919V66.6312C137.487 69.9543 134.768 72.6731 131.445 72.6731H86.0631C82.74 72.6731 80.0212 69.9543 80.0212 66.6312ZM99.6354 51.138H117.872V46.2459C117.872 45.5714 117.311 45.0103 116.637 45.0103H100.871C100.196 45.0103 99.6354 45.5705 99.6354 46.2459V51.138ZM95.2722 65.3114C95.2722 65.6121 95.5182 65.8582 95.819 65.8582H121.689C121.99 65.8582 122.236 65.6121 122.236 65.3114V58.5C122.236 58.1993 121.99 57.9532 121.689 57.9532H95.819C95.5182 57.9532 95.2722 58.1993 95.2722 58.5V65.3114ZM108.289 102.041L78.6707 112.963C78.5263 114.145 78.1976 115.321 77.6704 116.453C76.3106 119.372 73.8768 121.47 71.0516 122.499C68.2306 123.527 65.0204 123.485 62.1025 122.126L45.9932 114.62C44.8984 114.111 44.424 112.81 44.9337 111.715C45.4434 110.62 46.7441 110.146 47.839 110.656L63.9482 118.161C65.7814 119.015 67.7961 119.042 69.5649 118.398C71.4257 117.72 72.8538 116.389 73.7056 114.607C75.9161 109.863 73.8368 104.155 69.0924 101.944L38.9347 87.8935C35.0388 86.0784 30.844 86.9772 27.038 88.9744L18.7876 93.304L22.0136 128.451C26.2352 126.913 30.3917 126.875 35.0899 128.837L52.4975 136.108C56.4613 137.763 60.4023 138.065 64.4336 136.578L114.251 118.206C118.696 116.566 120.991 111.588 119.352 107.142C117.713 102.697 112.734 100.401 108.289 102.041ZM14.173 90.8936C14.0776 89.8546 13.1493 89.0821 12.1102 89.1775L4.23551 89.9002C3.19672 89.9957 2.42426 90.924 2.51969 91.9633L6.43039 134.57C6.52582 135.609 7.45414 136.382 8.49321 136.286L16.3679 135.563C17.4067 135.468 18.1792 134.54 18.0838 133.501L14.173 90.8936Z" fill="#009DDD"/>
</svg>
