<svg width="89" height="117" viewBox="0 0 89 117" fill="none" xmlns="http://www.w3.org/2000/svg">
<path d="M83 86.5659L0 117V28.6738L76.6129 0.575838C82.6129 -1.63232 89 2.78399 89 9.15243V77.9893C89 81.7975 86.6129 85.2218 83 86.5659Z" fill="url(#paint0_linear_11801_260)"/>
<path d="M41.2944 76.2717C40.6206 77.9722 39.658 79.5765 38.4708 81.0525C37.2837 82.5285 35.8719 83.844 34.2676 84.9991C32.6633 86.1542 30.9306 87.0526 29.1017 87.7264C27.2728 88.4002 25.5722 88.7532 23.9679 88.7852C22.3636 88.8173 20.9839 88.5285 19.7968 87.9189C18.6096 87.3093 17.6791 86.4109 17.0053 85.2237C16.3315 84.0365 15.9785 82.4964 15.9785 80.6675V50.9558C15.9785 49.1269 16.3315 47.3621 17.0053 45.6616C17.6791 43.961 18.6096 42.3888 19.7968 40.9128C20.9839 39.4689 22.3636 38.1534 23.9679 37.0304C25.5722 35.9074 27.2728 35.009 29.1017 34.3352C30.9306 33.6614 32.6633 33.3084 34.2676 33.2442C35.8719 33.1801 37.2837 33.4368 38.4708 34.0143C39.658 34.5919 40.6206 35.4903 41.2944 36.6775C41.9682 37.8646 42.3212 39.4048 42.3212 41.2337V70.9775C42.3212 72.8064 42.0003 74.5711 41.2944 76.2717ZM33.9467 44.7952C33.9467 43.9289 33.8184 43.2551 33.5296 42.7417C33.2729 42.2283 32.8879 41.8754 32.4387 41.6508C31.9574 41.4262 31.444 41.3299 30.8664 41.362C30.2889 41.3941 29.7114 41.5225 29.1017 41.7471C27.8824 42.1963 26.7915 42.9984 25.8289 44.1214C24.8664 45.2444 24.3851 46.6562 24.3851 48.3247V77.2022C24.3851 78.9027 24.8664 79.9616 25.8289 80.4108C26.7915 80.86 27.8824 80.86 29.1017 80.4108C29.7114 80.1862 30.2889 79.8653 30.8664 79.4482C31.444 79.0311 31.9574 78.5498 32.4387 77.9722C32.92 77.3947 33.2729 76.753 33.5296 76.0471C33.7863 75.3412 33.9467 74.539 33.9467 73.7048V44.7952Z" fill="#FFC60E"/>
<path d="M59.1671 76.015V38.6989L49.1562 42.3888V35.6828L50.1188 35.3298C51.306 34.8806 52.429 34.271 53.52 33.5009C54.6109 32.7309 55.5735 31.8324 56.4398 30.8699C57.3061 29.8752 57.9799 28.8164 58.4933 27.6933C59.0067 26.5703 59.2313 25.4473 59.2313 24.3243V23.9072L67.5095 20.859V72.9026L59.1671 76.015Z" fill="#FFC60E"/>
<defs>
<linearGradient id="paint0_linear_11801_260" x1="-0.0238387" y1="58.4906" x2="89.002" y2="58.4906" gradientUnits="userSpaceOnUse">
<stop stop-color="#F2F2F3"/>
<stop offset="1" stop-color="white"/>
</linearGradient>
</defs>
</svg>
