<svg width="88" height="118" viewBox="0 0 88 118" fill="none" xmlns="http://www.w3.org/2000/svg">
<path d="M82.0671 87.3058L0 118V28.9189L75.7518 0.580759C81.6844 -1.64627 87.9997 2.80778 87.9997 9.23066V78.6558C88.0316 82.5289 85.6394 85.9502 82.0671 87.3058Z" fill="url(#paint0_linear_11801_259)"/>
<path d="M38.7182 76.7649C38.0444 78.4655 37.0819 80.0698 35.8947 81.5458C34.7075 83.0217 33.2957 84.3373 31.6914 85.4924C30.0871 86.6475 28.3544 87.5459 26.5255 88.2197C24.6966 88.8935 22.9961 89.2464 21.3918 89.2785C19.7875 89.3106 18.4078 89.0218 17.2206 88.4122C16.0334 87.8025 15.1029 86.9041 14.4291 85.717C13.7553 84.5298 13.4023 82.9896 13.4023 81.1607V51.449C13.4023 49.6201 13.7553 47.8554 14.4291 46.1548C15.1029 44.4543 16.0334 42.882 17.2206 41.4061C18.4078 39.9622 19.7875 38.6467 21.3918 37.5237C22.9961 36.4007 24.6966 35.5023 26.5255 34.8284C28.3544 34.1546 30.0871 33.8017 31.6914 33.7375C33.2957 33.6734 34.7075 33.93 35.8947 34.5076C37.0819 35.0851 38.0444 35.9836 38.7182 37.1707C39.392 38.3579 39.745 39.898 39.745 41.727V71.4387C39.745 73.2997 39.392 75.0644 38.7182 76.7649ZM31.3705 45.2885C31.3705 44.4222 31.2422 43.7484 30.9534 43.235C30.6967 42.7216 30.3117 42.3687 29.8625 42.1441C29.3812 41.9195 28.8678 41.8232 28.2903 41.8553C27.7127 41.8874 27.1352 42.0157 26.5255 42.2403C25.3063 42.6895 24.2154 43.4917 23.2528 44.6147C22.2902 45.7377 21.8089 47.1495 21.8089 48.818V77.6954C21.8089 79.396 22.2902 80.4548 23.2528 80.9041C24.2154 81.3533 25.3063 81.3533 26.5255 80.9041C27.1352 80.6794 27.7127 80.3586 28.2903 79.9415C28.8678 79.5244 29.3812 79.043 29.8625 78.4655C30.3117 77.8879 30.6967 77.2462 30.9534 76.5403C31.2101 75.8344 31.3705 75.0323 31.3705 74.1981V45.2885Z" fill="#999999"/>
<path d="M45.3281 80.6474V69.5135C45.3281 67.3317 45.7773 65.1819 46.6436 63.0642C47.51 60.9465 48.633 58.8609 49.9806 56.7753C51.3282 54.6898 52.7721 52.6683 54.3122 50.6469C55.8524 48.6255 57.2962 46.6361 58.6438 44.6789C59.9915 42.7216 61.0824 40.7965 61.9808 38.9034C62.8471 37.0103 63.2963 35.1814 63.2963 33.3846C63.2963 32.6466 63.168 32.0049 62.8792 31.5557C62.6225 31.0744 62.2375 30.7215 61.7883 30.4648C61.3391 30.2081 60.8257 30.0797 60.2481 30.0797C59.6706 30.0797 59.061 30.2081 58.4192 30.4327C57.2 30.8819 56.109 31.684 55.1465 32.8712C54.1839 34.0584 53.7026 35.406 53.7026 36.9141V40.251L45.3281 43.3634V40.0264C45.3281 38.1975 45.6811 36.4007 46.3549 34.668C47.0287 32.9354 47.9592 31.299 49.1464 29.823C50.3335 28.315 51.7132 26.9995 53.3175 25.8444C54.9218 24.6893 56.6224 23.7588 58.4513 23.085C60.3444 22.3791 62.1091 21.9941 63.7134 21.9299C65.3177 21.8657 66.7295 22.1224 67.9167 22.732C69.1039 23.3096 70.0344 24.2401 70.6761 25.4914C71.3499 26.7428 71.6708 28.3471 71.6708 30.2723C71.6708 32.4541 71.2216 34.636 70.3553 36.8178C69.4889 38.9997 68.3659 41.1815 67.0504 43.3313C65.7349 45.481 64.291 47.5987 62.7509 49.7164C61.2107 51.802 59.7668 53.8555 58.4513 55.8769C57.1358 57.8984 56.0128 59.8556 55.1465 61.7808C54.2801 63.7059 53.8309 65.5348 53.8309 67.2996V70.0269L63.2963 66.5295V60.2406L71.6708 57.1283V70.8932L45.3281 80.6474Z" fill="#999999"/>
<defs>
<linearGradient id="paint0_linear_11801_259" x1="-0.00309386" y1="58.9951" x2="88.0221" y2="58.9951" gradientUnits="userSpaceOnUse">
<stop stop-color="#F2F2F3"/>
<stop offset="1" stop-color="white"/>
</linearGradient>
</defs>
</svg>
