<svg width="88" height="117" viewBox="0 0 88 117" fill="none" xmlns="http://www.w3.org/2000/svg">
<path d="M82.0674 86.5659L0 117V28.6738L75.7521 0.575836C81.6847 -1.63232 88 2.78401 88 9.15245V77.9893C88 81.7975 85.6397 85.2218 82.0674 86.5659Z" fill="url(#paint0_linear_11801_258)"/>
<path d="M38.6753 76.3546C38.0015 78.0552 37.0389 79.6595 35.8517 81.1355C34.6645 82.6114 33.2527 83.9269 31.6484 85.082C30.0441 86.2371 28.3115 87.1355 26.4826 87.8093C24.6537 88.4831 22.9531 88.8361 21.3488 88.8682C19.7445 88.9003 18.3648 88.6115 17.1776 88.0018C15.9904 87.3922 15.0599 86.4938 14.3861 85.3066C13.7123 84.1195 13.3594 82.5793 13.3594 80.7504V51.0387C13.3594 49.2098 13.7123 47.4451 14.3861 45.7445C15.0599 44.0439 15.9904 42.4717 17.1776 40.9958C18.3648 39.5519 19.7445 38.2364 21.3488 37.1133C22.9531 35.9903 24.6537 35.0919 26.4826 34.4181C28.3115 33.7443 30.0441 33.3914 31.6484 33.3272C33.2527 33.263 34.6645 33.5197 35.8517 34.0973C37.0389 34.6748 38.0015 35.5732 38.6753 36.7604C39.3491 37.9476 39.7021 39.4877 39.7021 41.3166V71.0283C39.67 72.8893 39.3491 74.6541 38.6753 76.3546ZM31.2955 44.8782C31.2955 44.0119 31.1672 43.3381 30.8784 42.8247C30.6217 42.3113 30.2367 41.9583 29.7874 41.7337C29.3062 41.5091 28.7928 41.4129 28.2152 41.445C27.6377 41.477 27.0601 41.6054 26.4505 41.83C25.2312 42.2792 24.1403 43.0814 23.1777 44.2044C22.2151 45.3274 21.7339 46.7392 21.7339 48.4077V77.2851C21.7339 78.9857 22.2151 80.0445 23.1777 80.4937C24.1403 80.9429 25.2312 80.9429 26.4505 80.4937C27.0601 80.2691 27.6377 79.9483 28.2152 79.5311C28.7928 79.114 29.3062 78.6327 29.7874 78.0552C30.2687 77.4776 30.6217 76.8359 30.8784 76.13C31.1351 75.4241 31.2955 74.622 31.2955 73.7877V44.8782Z" fill="#00A99D"/>
<path d="M70.3756 64.9961C69.7018 66.6967 68.7713 68.2368 67.5841 69.6486C66.3969 71.0604 65.0172 72.3438 63.4129 73.4669C61.8086 74.5899 60.1081 75.4883 58.2792 76.1621C56.354 76.868 54.5893 77.253 52.985 77.2851C51.3807 77.3172 50.001 77.0284 48.8459 76.4508C47.6908 75.8733 46.7924 74.9428 46.1186 73.6914C45.4768 72.4401 45.156 70.9 45.156 69.039V65.4453L53.5304 62.333V65.7341C53.5304 67.3384 53.9796 68.3973 54.9101 68.8465C55.8085 69.3277 56.9315 69.2957 58.2792 68.8144C59.5305 68.3652 60.6535 67.5309 61.6482 66.3437C62.6429 65.1565 63.1242 63.7448 63.1242 62.0763V54.7286C63.1242 53.5735 62.9317 52.6751 62.5466 51.9692C62.1616 51.2954 61.6803 50.782 61.0386 50.4932C60.3969 50.1724 59.691 50.044 58.8246 50.1082C57.9904 50.1403 57.092 50.3328 56.1615 50.6857L52.7604 51.9371V44.461L56.2577 43.1776C58.2792 42.4396 59.9156 41.3166 61.1669 39.8406C62.4504 38.3647 63.06 36.5679 63.06 34.4502V32.7817C63.06 31.3057 62.5787 30.3753 61.584 29.9581C60.5894 29.541 59.4664 29.5731 58.215 30.0544C56.8674 30.5678 55.7123 31.3378 54.8139 32.4288C53.9155 33.5197 53.4663 34.8031 53.4663 36.3112V39.969L45.0918 43.0813V39.1027C45.0918 37.2417 45.4126 35.4769 46.0865 33.7764C46.7603 32.1079 47.6587 30.5678 48.8138 29.1239C49.9689 27.7121 51.3486 26.4608 52.9529 25.3698C54.5572 24.2789 56.2898 23.3805 58.1829 22.6746C60.1402 21.9366 61.937 21.5195 63.5734 21.4553C65.1777 21.3591 66.5574 21.5837 67.7125 22.1612C68.8676 22.7388 69.7339 23.6051 70.3756 24.7923C71.0173 25.9795 71.3061 27.5196 71.3061 29.3806V32.0117C71.3061 33.2309 71.1136 34.4181 70.7607 35.5411C70.4077 36.6641 69.8943 37.755 69.2526 38.7176C68.6109 39.7123 67.8408 40.6107 67.0066 41.4129C66.1403 42.215 65.2418 42.9209 64.2793 43.5305C66.5253 43.4985 68.29 43.9797 69.4772 45.0386C70.6965 46.0974 71.3061 47.798 71.3061 50.1724V59.734C71.4024 61.5629 71.0494 63.3277 70.3756 64.9961Z" fill="#00A99D"/>
<defs>
<linearGradient id="paint0_linear_11801_258" x1="-0.0175745" y1="58.49" x2="88.008" y2="58.49" gradientUnits="userSpaceOnUse">
<stop stop-color="#F2F2F3"/>
<stop offset="1" stop-color="white"/>
</linearGradient>
</defs>
</svg>
