<svg width="89" height="117" viewBox="0 0 89 117" fill="none" xmlns="http://www.w3.org/2000/svg">
<path d="M83 86.5659L0 117V28.6738L76.6129 0.575836C82.6129 -1.63232 89 2.78401 89 9.15245V77.9893C89 81.7975 86.6129 85.2218 83 86.5659Z" fill="url(#paint0_linear_11801_257)"/>
<path d="M41.2944 75.9122C40.6206 77.6127 39.658 79.217 38.4708 80.693C37.2837 82.1689 35.8719 83.4845 34.2676 84.6396C32.6633 85.7947 30.9306 86.6931 29.1017 87.3669C27.2728 88.0407 25.5722 88.3936 23.9679 88.4257C22.3636 88.4578 20.9839 88.169 19.7968 87.5594C18.6096 86.9497 17.6791 86.0514 17.0053 84.8642C16.3315 83.677 15.9785 82.1368 15.9785 80.3079V50.5962C15.9785 48.7673 16.3315 47.0026 17.0053 45.302C17.6791 43.6015 18.6096 42.0292 19.7968 40.5533C20.9839 39.1094 22.3636 37.7939 23.9679 36.6709C25.5722 35.5479 27.2728 34.6495 29.1017 33.9756C30.9306 33.3018 32.6633 32.9489 34.2676 32.8847C35.8719 32.8206 37.2837 33.0772 38.4708 33.6548C39.658 34.2323 40.6206 35.1308 41.2944 36.3179C41.9682 37.5051 42.3212 39.0452 42.3212 40.8741V70.5859C42.3212 72.4469 42.0003 74.2116 41.2944 75.9122ZM33.9467 44.4357C33.9467 43.5694 33.8184 42.8956 33.5296 42.3822C33.2729 41.8688 32.8879 41.5159 32.4387 41.2913C31.9574 41.0667 31.444 40.9704 30.8664 41.0025C30.2889 41.0346 29.7114 41.163 29.1017 41.3876C27.8824 41.8368 26.7915 42.6389 25.8289 43.7619C24.8664 44.8849 24.3851 46.2967 24.3851 47.9652V76.8427C24.3851 78.5432 24.8664 79.6021 25.8289 80.0513C26.7915 80.5005 27.8824 80.5005 29.1017 80.0513C29.7114 79.8267 30.2889 79.5058 30.8664 79.0887C31.444 78.6716 31.9574 78.1902 32.4387 77.6127C32.92 77.0351 33.2729 76.3934 33.5296 75.6875C33.7863 74.9816 33.9467 74.1795 33.9467 73.3453V44.4357Z" fill="#178E86"/>
<path d="M72.7062 56.9814V70.6179L64.3317 73.7303V59.9653L45.3047 66.9922V60.3825L64.7168 21.4942L72.7383 18.5422V49.2807L76.8132 47.7726V55.4733L72.7062 56.9814ZM64.2996 36.8634L54.8343 56.115L64.2996 52.6177V36.8634Z" fill="#178E86"/>
<defs>
<linearGradient id="paint0_linear_11801_257" x1="-0.0238387" y1="58.4858" x2="89.002" y2="58.4858" gradientUnits="userSpaceOnUse">
<stop stop-color="#F2F2F3"/>
<stop offset="1" stop-color="white"/>
</linearGradient>
</defs>
</svg>
