<svg width="88" height="117" viewBox="0 0 88 117" fill="none" xmlns="http://www.w3.org/2000/svg">
<path d="M82.0671 86.5659L0 117V28.6738L75.7518 0.57584C81.6844 -1.63232 87.9997 2.78397 87.9997 9.15242V77.9893C88.0316 81.7976 85.6394 85.2218 82.0671 86.5659Z" fill="url(#paint0_linear_11801_233)"/>
<path d="M38.7182 76.4055C38.0444 78.1061 37.0819 79.7104 35.8947 81.1863C34.7075 82.6623 33.2957 83.9778 31.6914 85.1329C30.0871 86.288 28.3544 87.1864 26.5255 87.8603C24.6966 88.5341 22.9961 88.887 21.3918 88.9191C19.7875 88.9512 18.4078 88.6624 17.2206 88.0528C16.0334 87.4431 15.1029 86.5447 14.4291 85.3575C13.7553 84.1703 13.4023 82.6302 13.4023 80.8013V51.0896C13.4023 49.2607 13.7553 47.496 14.4291 45.7954C15.1029 44.0949 16.0334 42.5226 17.2206 41.0467C18.4078 39.6028 19.7875 38.2873 21.3918 37.1643C22.9961 36.0413 24.6966 35.1428 26.5255 34.469C28.3544 33.7952 30.0871 33.4423 31.6914 33.3781C33.2957 33.3139 34.7075 33.5706 35.8947 34.1482C37.0819 34.7257 38.0444 35.6241 38.7182 36.8113C39.392 37.9985 39.745 39.5386 39.745 41.3675V71.0792C39.745 72.9402 39.392 74.7049 38.7182 76.4055ZM31.3705 44.9291C31.3705 44.0628 31.2422 43.3889 30.9534 42.8756C30.6967 42.3622 30.3117 42.0093 29.8625 41.7847C29.3812 41.5601 28.8678 41.4638 28.2903 41.4959C27.7127 41.528 27.1352 41.6563 26.5255 41.8809C25.3063 42.3301 24.2154 43.1323 23.2528 44.2553C22.2902 45.3783 21.8089 46.7901 21.8089 48.4585V77.336C21.8089 79.0366 22.2902 80.0954 23.2528 80.5446C24.2154 80.9938 25.3063 80.9938 26.5255 80.5446C27.1352 80.32 27.7127 79.9992 28.2903 79.582C28.8678 79.1649 29.3812 78.6836 29.8625 78.1061C30.3117 77.5285 30.6967 76.8868 30.9534 76.1809C31.2101 75.475 31.3705 74.6729 31.3705 73.8386V44.9291Z" fill="#178E86"/>
<path d="M70.644 64.9829C69.9702 66.6835 69.0397 68.2236 67.8526 69.6354C66.6654 71.0472 65.2857 72.3306 63.6493 73.4536C62.045 74.5766 60.3123 75.5071 58.4513 76.1809C56.6224 76.8547 54.9218 77.2077 53.3175 77.2398C51.7132 77.2719 50.3335 76.9831 49.1464 76.4055C47.9592 75.828 47.0287 74.8975 46.3549 73.6782C45.6811 72.4589 45.3281 70.8867 45.3281 69.0257V65.4321L53.7026 62.3198V65.7209C53.7026 67.3252 54.1839 68.3519 55.1144 68.8332C56.077 69.2824 57.1679 69.2824 58.4192 68.8332C59.6706 68.384 60.7936 67.5498 61.7883 66.3626C62.7829 65.1754 63.2642 63.7636 63.2642 62.0951V46.7901C63.2642 45.25 62.8471 44.1911 61.9808 43.5815C61.1145 42.9719 59.9594 42.9398 58.5476 43.4852C57.3283 43.9344 56.2374 44.7366 55.3069 45.9238C54.3443 47.1109 53.7347 48.4586 53.4138 49.9987L45.3602 52.9827V28.2123L71.7029 18.4902V25.9021L53.863 32.4797V39.6349C54.5368 39.0253 55.4031 38.3835 56.4299 37.7418C57.4567 37.1001 58.8043 36.4584 60.4728 35.8488C61.8204 35.3354 63.168 35.0466 64.5156 34.9503C65.8311 34.8541 67.0504 35.0145 68.1092 35.4637C69.2002 35.9129 70.0665 36.6509 70.7082 37.7097C71.382 38.7686 71.7029 40.2124 71.7029 42.0414V59.7208C71.6708 61.5497 71.3178 63.2823 70.644 64.9829Z" fill="#178E86"/>
<defs>
<linearGradient id="paint0_linear_11801_233" x1="-0.00309386" y1="58.4903" x2="88.0221" y2="58.4903" gradientUnits="userSpaceOnUse">
<stop stop-color="#F2F2F3"/>
<stop offset="1" stop-color="white"/>
</linearGradient>
</defs>
</svg>
