<svg width="332" height="341" viewBox="0 0 332 341" fill="none" xmlns="http://www.w3.org/2000/svg">
<path d="M286.766 185.938C287.41 184.571 308.118 184.155 311.18 183.425L284.611 178.04C280.759 238.857 234.078 286.354 173.312 291.493C175.143 300.985 178.681 309.975 179.595 319.676C180.055 316.327 181.406 295.183 181.929 294.006C182.249 293.286 183.997 293.119 184.801 294.006C186.229 295.579 195.326 329.837 196.829 334.756C197.109 329.737 193.337 292.678 195.034 291.313C195.7 290.777 197.57 290.653 198.085 291.134C199.235 292.206 208.734 316.503 210.472 320.035C210.45 315.912 204.778 289.795 205.266 288.261C205.39 287.871 207.127 286.914 208.138 287.902C209.738 289.465 226.2 322.253 229.5 327.216L217.473 284.671C218.446 285.009 219.763 284.697 220.166 284.851C221.792 285.47 237.705 308.141 239.912 311.778C237.99 305.74 227.216 283.81 226.449 280.004C225.949 277.524 228.61 276.861 229.141 276.952C230.879 277.249 249.715 300.336 252.299 303.52L252.658 303.161C250.975 299.547 235.753 273.415 236.681 271.925C237.946 269.895 240.902 273.099 242.066 274.08C251.23 281.794 262.938 295.316 272.225 303.879L246.554 264.206C248.457 263.771 250.972 265.938 253.555 267.617C261.05 272.489 267.627 278.81 274.918 283.953C272.794 280.424 253.023 258.761 253.017 257.026C253.016 256.807 255.548 254.171 256.428 254.692C260.511 257.109 285.453 276.2 287.304 276.593C287.56 276.647 288.063 276.672 288.202 276.413C285.226 272.817 261.632 249.972 261.275 248.05C261.113 247.18 262.75 245.738 262.89 245.716C264.745 245.435 291.636 262.188 295.741 263.847C293.012 260.386 267.387 240.263 267.378 238.356C267.377 238.203 268.746 236.424 269.712 236.382C271.315 236.311 295.428 247.303 299.332 248.768C297.609 247.373 266.764 226.429 275.456 227.765C281.187 228.646 305.839 238.823 314.052 240.869C309.191 237.851 280.739 220.352 279.405 218.789C278.069 217.222 278.349 215.606 280.483 215.558C282.145 215.52 304.749 222.074 309.205 223.456C303.147 219.847 296.614 216.985 290.535 213.404C281.579 208.127 277.617 206.691 288.381 207.659C296.712 208.408 304.961 210.599 313.334 211.07C309.996 209.167 284.263 202.182 283.893 200.658C283.854 200.497 284.485 197.533 284.611 197.427C286.128 196.156 319.409 200.533 324.105 199.94C319.664 197.628 288.73 190.275 287.304 188.99C286.672 188.42 286.52 186.458 286.766 185.938Z" fill="#000101"/>
<path d="M45.8538 178.398C45.6355 178.091 44.3401 178.197 43.879 178.219C41.7181 178.32 25.5185 182.74 21.4398 183.425C24.2035 184.093 42.6157 184.759 43.5201 185.399C43.6527 185.493 44.0976 188.376 43.879 188.631C42.5783 190.149 10.0629 197.963 5.64258 200.299C10.7595 200.282 43.8224 196.473 45.6742 197.247C45.9131 197.347 48.0075 200.258 45.6742 201.556C44.0406 202.465 21.7845 209.049 16.4134 211.429C19.0091 211.242 48.852 206.209 49.0851 207.839C40.9149 213.651 31.7321 217.787 23.0554 222.738C30.0611 221.092 41.3517 217.376 47.8284 216.276C49.7444 215.951 52.9971 214.912 52.3163 217.891C51.8477 219.942 20.8803 237.665 17.1315 240.869C30.4349 236.405 43.4927 231.114 57.1631 227.765C57.8249 228.205 57.5633 228.444 57.3425 229.021C56.5181 231.179 35.352 246.09 31.4924 248.409L32.031 248.947C35.3728 246.993 59.5301 236.283 61.1122 236.381C61.9333 236.432 63.0699 237.871 63.0869 237.997C63.3348 239.838 38.7907 260.173 35.8007 263.129L36.3392 263.309C40.0743 261.106 65.7839 245.795 67.5747 245.716C68.2308 245.687 69.4669 246.515 69.5494 246.973C69.9107 248.976 45.0056 273.412 42.2632 277.131L75.1143 254.333C75.371 254.314 77.7967 256.489 77.8069 256.666C77.9072 258.413 58.1952 280.598 55.9062 283.953C59.2118 281.671 81.6658 263.55 83.3718 263.667C83.4488 263.673 84.6035 264.41 84.6285 264.565L58.0604 304.058C62.5272 300.872 90.6544 270.769 93.0656 270.848C93.168 270.851 94.6623 272.004 94.6813 272.105C95.0139 273.864 79.6447 299.953 77.8069 303.699C81.3445 301.2 99.8976 276.869 101.682 276.593C102.142 276.521 105.052 278.332 105.093 278.567C105.395 280.307 92.4818 306.964 91.2704 311.059C93.6574 307.98 109.403 284.863 111.017 284.491C111.151 284.46 113.625 284.922 113.71 285.03C114.039 285.45 110.515 293.7 110.12 295.083C106.965 306.117 104.261 317.304 100.964 328.293C104.175 323.502 121.213 289.296 123.045 287.902C124.976 286.432 125.56 288.441 125.558 290.056C125.555 292.442 120.831 314.127 120.352 320.394C122.218 317.005 131.478 292.1 132.738 291.133C133.209 290.772 135.961 291.434 136.149 291.672C137.488 293.363 133.706 329.668 133.995 334.755C135.639 330.052 144.795 293.63 146.92 293.108C146.992 293.09 148.297 293.423 148.356 293.467C149.978 294.665 151.417 317.242 151.228 320.753L157.511 291.492C97.2863 286.728 49.8348 238.67 45.8538 178.398Z" fill="#000101"/>
<path d="M5.82422 142.316C9.93747 143.916 43.1803 151.129 44.0608 152.908C44.2336 153.256 44.1736 155.378 43.5223 155.6L16.2361 157.036C26.0135 158.241 35.8261 159.72 45.3174 162.422C46.5121 162.016 46.1884 155.67 46.5739 153.266C55.7468 96.0739 98.9314 53.1372 157.155 48.0712C157.982 46.904 151.774 26.4196 151.59 23.1187C151.058 25.944 149.9 44.9874 148.359 45.7374C148.107 45.8598 146.336 45.7838 146.025 45.5579C144.421 44.3926 135.638 12.0386 134.356 7.68042L136.69 47.7121C136.962 48.4595 133.817 49.3678 133.638 49.3277C132.107 48.9838 121.571 24.2869 120.354 20.9645C120.189 24.9899 126.405 50.1792 125.919 51.6614C125.805 52.0105 123.709 52.581 123.586 52.559C121.371 52.164 104.423 17.7757 101.685 13.4249L113.353 55.6108C113.323 55.7546 111.674 56.9037 111.379 56.8674C109.632 56.6519 92.9496 31.6667 90.5551 28.5041C92.0068 32.5894 104.723 59.9485 104.378 61.7143C104.338 61.9159 101.928 64.0422 100.787 63.5094C99.1599 62.7491 80.7469 39.2077 77.6301 36.0438C79.158 40.2275 94.3005 66.0233 94.3249 67.8178C94.3417 69.0459 93.2718 69.3295 92.3503 69.7925L66.6797 46.6352C68.1417 50.5371 84.3259 73.6742 84.2721 75.3575C84.2681 75.4849 82.7813 77.3056 82.6565 77.3321C80.8158 77.7217 58.4507 56.6172 53.3956 53.9952C56.1522 57.7249 77.4804 81.7588 77.0916 83.6152C77.0602 83.7648 75.0781 85.6073 74.7579 85.5898C73.0254 85.4948 49.2337 68.857 45.856 66.3818C47.7014 70.1543 69.5523 90.1327 69.5519 91.8728C69.5519 92.0124 67.9946 93.8261 67.5773 93.8475L26.1095 70.6902L62.7305 101.926C62.7256 106.979 43.0349 95.332 36.5214 94.386C38.9009 96.4313 57.1161 109.939 57.3451 111.26C57.4777 112.026 56.8354 112.816 56.0885 112.876C53.8931 113.053 20.0178 99.7368 14.2618 99.0534C27.365 105.994 39.8601 114.014 52.3188 122.031C51.6422 122.512 51.698 124.144 51.0623 124.365C49.6804 124.845 26.2662 117.675 22.6989 117.184C22.3761 117.435 22.4136 117.634 22.6989 117.902C23.0391 118.222 30.0658 120.858 31.3156 121.493C33.3698 122.536 48.6331 130.72 48.7284 131.725C48.7409 131.857 47.621 133.992 47.4719 134.059C45.866 134.78 17.1086 128.871 12.6461 129.032C16.1452 131.115 45.5751 139.748 46.2153 141.419C46.354 141.781 45.6478 145 45.3177 145.189L5.82422 142.316Z" fill="#000101"/>
<path d="M173.672 48.0714C211.784 50.2041 247.713 73.6395 267.378 105.875C277.938 123.184 283.364 142.235 285.15 162.422C294.898 160.085 304.764 158.032 314.77 157.216C311.038 155.744 288.908 156.144 287.663 155.6C287.244 155.417 286.718 153.041 286.766 152.908C287.184 151.736 307.851 146.631 310.641 145.907C312.881 145.326 323.661 143.347 324.284 143.035C324.641 142.856 324.01 142.33 323.925 142.317C322.023 142.019 291.261 145.104 285.509 144.83C285.354 144.746 284.538 141.679 284.612 141.419C285.092 139.733 313.761 131.28 317.642 129.75L317.283 129.032C312.521 129.311 284.624 134.651 282.996 134.059C282.662 133.937 281.71 131.854 281.739 131.725C282.067 130.274 304.831 118.88 307.948 117.723C304.039 117.797 281.546 124.519 280.124 124.365C279.376 124.284 278.5 122.518 278.508 122.39C278.652 120.14 312.662 101.403 316.745 98.5148C303.888 103.14 290.954 107.537 277.97 111.799C276.773 112.192 273.327 114.875 273.482 111.619C273.548 110.226 292.233 95.5178 295.023 94.0269C291.282 94.1292 271.065 104.438 269.712 104.259C269.52 104.234 268.213 102.641 267.737 102.285C276.008 95.3919 283.805 87.928 291.972 80.9223C292.958 80.0764 304.541 71.1927 303.82 70.8695L262.891 94.2064C262.519 93.6779 261.206 92.8956 261.275 92.2318C261.45 90.5514 282.003 70.8049 284.253 67.4588C280.695 69.3124 257.739 86.1933 256.069 85.9488C255.68 85.8918 253.993 83.9476 254.094 83.256C254.374 81.3461 275.461 56.8004 277.97 52.9182C273.82 55.0996 250.12 78.0523 248.171 78.0502C248 78.05 246.423 77.0299 246.914 75.3575C247.368 73.8126 261.402 51.7004 263.429 47.7123L262.891 47.1737C260.161 50.0104 240.129 69.8698 238.477 70.1516C237.836 70.2609 236.179 69.0838 236.143 68.895C235.804 67.0756 251.846 40.2317 253.197 36.0439C246.786 43.2614 237.487 56.104 231.117 62.4325C229.821 63.7204 228.702 64.4257 226.988 62.6121C226.323 61.9084 228.111 57.4078 228.604 55.97C231.818 46.5993 239.833 31.8662 239.734 30.479C239.702 30.0325 239.742 29.8628 239.195 29.9405C237.267 33.2134 221.104 56.6366 219.448 56.8676C219.135 56.9114 217.912 56.2565 217.833 55.97L229.501 13.0661C226.282 17.1888 209.853 52.6104 207.6 52.9183C207.476 52.9352 205.33 52.1284 205.266 52.0207C204.484 50.6935 210.827 25.5299 210.472 21.6828C208.861 25.0551 198.942 49.0201 197.188 49.328C197.048 49.3525 194.588 48.6116 194.496 48.4304C193.55 46.5816 197.265 12.1381 196.829 6.96265C195.753 11.7127 186.282 44.1799 184.802 45.5582C184.051 46.2572 182.452 46.0779 181.93 44.4812L179.237 22.4009C179.387 29.2064 172.896 46.9811 173.672 48.0714Z" fill="#000101"/>
<path d="M319.076 129.212C319.028 128.931 317.651 129.01 317.281 129.032L317.64 129.75C318.12 129.561 318.562 129.35 319.076 129.212Z" fill="#000101"/>
<path d="M52.8566 53.2772C52.4314 53.6512 53.3684 53.9593 53.3951 53.9953C53.3554 53.9747 53.6252 53.1325 52.8566 53.2772Z" fill="#000101"/>
<path d="M252.656 303.161L252.297 303.52C252.544 304.409 253.587 303.522 252.656 303.161Z" fill="#000101"/>
<path d="M281.378 162.601C279.407 104.544 230.217 55.1511 172.592 50.9435L165.232 0.5C164.084 17.4726 160.449 34.1079 158.231 50.9435C99.8872 55.9399 51.8686 103.759 49.4456 162.601L48.548 163.499L0.976562 170.5C16.9614 172.791 33.175 173.825 48.9068 177.501C52.6853 236.571 99.8008 282.057 158.231 287.184L165.591 340.5L172.592 287.184C210.28 283.815 244.224 263.661 264.144 231.535C274.648 214.596 279.489 197.232 281.916 177.501C298.408 173.834 315.262 172.591 332.001 170.5C326.351 169.301 282.364 164.968 281.378 162.601ZM173.131 56.5085C221.23 59.4533 266.064 99.9365 274.556 147.163C274.848 148.786 277.488 165.068 274.197 161.883C273.519 161.227 273.249 151.526 271.325 143.214C261.068 98.8857 224.553 67.667 180.67 59.3807C177.198 58.7249 172.507 60.0309 173.131 56.5085ZM165.232 47.8919L169.541 58.6627L161.462 58.4831L165.232 47.8919ZM56.267 146.804C60.8907 122.467 77.0566 96.6912 96.2987 81.2815C111.124 69.409 135.674 57.7441 154.82 56.8675C160.13 56.6243 157.967 58.7715 157.333 59.0216C155.819 59.6197 143.69 59.0417 125.739 66.2022C98.4072 77.1046 75.1377 100.884 64.1655 128.135C56.8533 146.295 57.4912 160.65 56.2669 161.883C53.3094 164.862 56.0036 148.19 56.267 146.804ZM46.5732 170.859C47.5625 169.97 55.1928 165.297 55.7285 165.294C56.0984 165.292 56.4468 165.185 56.6261 165.474L56.0875 175.706L46.5732 170.859ZM156.975 281.619C109.063 277.636 65.5128 240.709 56.267 193.119C55.9394 191.432 54.0331 178.642 54.6514 178.219C57.1986 176.476 57.7363 190.221 58.7803 194.914C68.1616 237.09 103.022 268.325 144.409 277.67C148.164 278.518 158.948 278.562 156.975 281.619ZM160.385 279.645L160.924 279.106L170.079 279.645C164.081 292.334 165.994 293.228 160.385 279.645ZM114.25 260.796C64.2981 232.841 47.0257 169.447 74.2184 119.159C90.9811 88.1593 124.348 65.6143 159.847 63.6891C214.402 60.7302 265.353 105.496 268.812 160.088C274.212 245.324 187.191 301.617 114.25 260.796ZM273.838 194.196C263.6 240.911 221.784 277.382 174.208 281.619C172.393 278.179 180.266 278.974 186.056 277.67C226.595 268.543 259.974 238.856 270.607 198.145C272.738 189.988 273.362 179.956 273.838 179.117C274.002 178.828 275.367 178.188 275.454 178.219C276.606 178.627 274.254 192.301 273.838 194.196ZM274.377 175.706L274.018 164.935L284.25 170.5L274.377 175.706Z" fill="#000101"/>
<path d="M102.762 242.844C169.104 299.591 268.162 245.383 260.914 160.088C256.53 108.496 208.98 68.1771 157.334 71.9465C139.967 73.2141 119.467 82.1966 105.993 93.1292C59.1407 131.145 56.4516 203.232 102.762 242.844ZM102.044 233.868L101.505 233.33C104.26 230.969 119.88 209.349 121.431 209.454C122.063 209.497 122.09 209.695 121.97 210.352C121.693 211.868 103.56 230.035 102.044 233.868ZM98.0946 229.919L120.354 205.864C120.456 205.864 120.956 206.533 121.252 206.762L98.0946 229.919ZM105.096 236.92L121.79 214.122C122.651 214.046 122.264 214.716 121.97 215.378C121.413 216.633 107.855 233.434 105.634 237.459L105.096 236.92ZM110.122 240.151C109.81 240.409 109.586 240.344 109.224 240.331L122.149 219.507L121.97 221.841C119.588 224.042 110.963 239.457 110.122 240.151ZM122.508 226.329C123.812 226.771 114.289 242.409 113.533 243.562L122.508 226.329ZM122.508 235.304L121.611 239.074C114.048 253.701 119.424 241.129 122.508 235.304ZM121.79 248.588C121.12 248.183 122.411 245.581 122.508 244.998C123.021 245.079 122.554 249.051 121.79 248.588ZM124.842 188.092C126.106 188.156 127.761 189.517 128.971 189.708C132.615 190.282 126.582 188.739 122.688 185.399C122.612 185.363 122.065 185.582 121.252 184.502C121.976 183.888 122.412 185.163 122.688 185.399C126.92 187.434 127.247 186.223 122.867 184.681C116.938 179.38 122.614 183.066 123.586 183.245C127.881 184.037 121.711 181.849 121.072 181.45C114.821 177.548 122.591 180.694 122.688 180.194C121.57 179.803 120.215 179.295 119.277 178.578C114.522 174.941 119.934 177.784 120.354 177.86C124.055 178.528 117.373 176.424 116.584 174.09C116.289 172.647 117.562 173.927 117.302 173.013C112.82 157.215 110.67 144.002 109.224 127.596L115.866 140.341C112.477 139.036 110.923 135.653 110.66 132.263C109.514 138.604 115.478 140.796 116.225 141.777C120.914 147.938 106.895 141.241 118.38 146.086C110.614 148.577 119.032 147.254 119.098 148.599C109.348 152.653 125.407 147.74 117.662 152.548C124.593 151.646 118.903 155.849 119.995 156.318C122.74 152.668 124.088 155.739 125.022 158.831C124.288 152.445 132.34 161.299 132.741 160.088C127.849 156.284 132.828 158.315 137.947 161.344C138.346 159.957 133.006 158.252 133.1 157.934C140.559 158.265 146.849 166.195 141.896 160.267C139.75 159.244 135.275 156.497 140.46 157.754C142.714 158.301 145.752 161.643 141.717 157.216C156.938 160.267 162.096 188.582 145.845 194.375C139.98 196.466 132.479 196.882 141.802 194.262C136.514 195.167 128.025 194.236 137.229 194.375C143.687 192.155 136.05 194.678 131.484 193.298C125.632 191.529 134.028 192.727 135.074 192.58C141.93 191.617 131.962 191.988 131.125 191.862C129.977 191.689 124.464 188.946 124.842 188.092ZM127.176 199.402C141.711 205.255 146.969 199.138 160.207 197.247C160.823 198.763 156.496 199.164 154.283 201.017C159.923 200.099 165.002 195.297 160.745 200.299C159.747 201.472 153.409 205.384 151.949 205.864C144.125 208.436 132.845 205.814 126.996 199.94L127.176 199.402ZM168.464 260.795C165.621 262.057 131.377 259.074 131.305 250.922C131.411 250.73 134.114 251.682 134.536 251.82V251.461C133.449 250.893 131.559 250.19 130.946 249.127C127.798 243.673 134.293 249.454 136.331 249.127C133.769 247.394 130.592 246.106 129.869 242.664C136.414 245.87 137.304 246.675 130.946 241.587C128.086 233.479 131.321 241.828 137.049 241.946C135.218 241.07 132.374 239.319 131.305 237.638C126.058 229.391 133.012 236.358 134.357 237.1C140.9 240.707 128.341 232.392 130.766 229.919C140.504 236.422 130.118 230.148 130.766 225.97C140.266 232.7 130.74 225.685 130.228 224.354C128.237 219.181 132.857 225.17 135.075 225.252C134.154 224.047 132.9 223.548 132.023 222.2C127.104 214.638 132.425 219.923 135.613 220.405C134.039 219.933 130.953 216.643 130.587 215.378C129.621 212.04 135.678 218.572 129.869 211.788C133.496 214.267 128.118 207.323 129.689 206.582C136.001 210.427 150.396 209.674 150.692 210.711C150.752 210.918 148.901 211.747 148.897 212.147C148.894 212.471 151.828 214.734 152.487 217.532C153.344 221.17 152.162 235.987 156.257 245.357C155.081 233.096 160.646 216.435 155.719 209.275C157.603 204.208 161.649 204.524 163.079 197.247C175.981 206.566 168.438 201.256 162.54 205.684C170.513 209.181 169.301 219.563 167.567 226.508H168.285L170.798 218.61C168.543 232.562 169.208 246.736 168.464 260.795ZM200.059 225.611L200.418 253.256C199.64 251.211 198.673 225.611 200.059 225.611ZM200.418 200.12C201.372 203.15 195.621 208.808 196.827 209.454C203.594 201.213 198.897 209.765 195.93 213.583L196.468 214.122C200.273 208.321 201.177 208.234 198.802 215.378C198.543 216.158 197.474 217.422 197.007 218.251L197.186 218.789C201.814 213.369 198.164 221.043 197.725 227.585C197.192 235.536 198.888 252.561 198.443 253.794C190.149 258.276 180.45 260.319 170.977 260.436C171.632 251.428 174.102 221.436 175.824 215.737C177.376 210.602 179.014 210.958 183.723 208.556C181.33 207.64 177.768 211.386 177.44 211.249C175.805 210.568 182.265 202.305 186.595 211.429C189.469 217.484 188.212 229.151 189.288 236.022C192.038 223.267 189 202.538 200.418 195.452C202.147 195.549 198.412 203.859 196.648 204.607C196.683 205.978 199.292 202.786 200.418 200.12ZM178.876 205.146C181.955 203.926 178.646 208.176 178.158 208.018C177.864 207.923 178.588 205.26 178.876 205.146ZM207.598 248.948C206.426 249.601 205.777 244.969 206.162 244.28C206.449 244.841 207.995 248.726 207.598 248.948ZM211.548 246.793L206.162 233.15C206.896 234.27 213.06 246.946 211.548 246.793ZM206.162 224.893C208.3 227.684 209.723 230.964 211.368 234.048C222.763 255.413 209.651 233.524 206.162 224.893ZM206.701 218.969C206.542 218.528 206.278 217.652 206.88 217.353L220.164 240.69C218.165 237.675 207.132 220.171 206.701 218.969ZM207.778 214.301C207.536 213.894 206.222 211.936 206.88 211.608C212.992 219.955 218.958 228.476 224.114 237.459C220.49 231.713 209.664 217.483 207.778 214.301ZM207.419 208.557L207.598 207.3C233.632 239.863 235.809 243.801 207.419 208.557ZM208.137 204.607C207.982 204.271 207.502 203.206 207.957 202.992L229.115 227.355C230.305 228.665 231.204 229.691 231.653 230.278L229.115 227.355C222.916 220.533 208.746 205.935 208.137 204.607ZM234.525 226.329C231.989 222.455 209.012 202.412 208.496 200.658C208.41 200.367 208.424 199.213 208.675 199.043C211.861 203.476 233.357 223.232 234.346 225.072C234.481 225.324 234.886 226.221 234.525 226.329ZM210.829 199.043C209.895 198.051 208.993 197.711 210.111 196.888C219.101 205.49 229.28 212.903 237.577 222.2C232.278 216.86 213.186 201.543 210.829 199.043ZM213.702 197.247C212.084 195.973 209.49 195.782 211.189 194.375L240.449 217.892C231.532 211.364 222.519 204.191 213.702 197.247ZM212.266 193.298C211.369 193.068 212.228 191.907 212.625 191.862C214.06 191.699 233.105 207.041 236.32 208.377L242.963 213.942C232.628 207.229 223.257 199.011 212.266 193.298ZM228.063 198.683C223.471 195.845 218.617 193.046 213.702 190.785C212.925 190.112 213.191 190.232 214.061 189.349L245.476 209.275C245.166 210.258 229.322 199.462 228.063 198.683ZM214.779 188.272L215.497 186.836L247.63 204.967C236.487 200.191 226.271 192.685 214.779 188.272ZM248.528 200.838C237.943 195.209 227.173 189.805 215.856 185.759C215.478 185.59 216.509 184.685 216.574 184.681C218.374 184.589 245.11 198.472 249.066 200.299L248.528 200.838ZM250.323 196.529C239.637 191.072 228.096 187.281 217.112 182.707C217.327 182.551 217.536 182.19 217.651 182.168C219.419 181.838 246.906 194.336 250.861 195.991L250.323 196.529ZM251.4 191.862C249.662 192.017 223.362 180.374 218.369 180.732C218.152 180.562 218.674 179.671 218.728 179.655C220.419 179.168 247.98 189.996 251.938 191.323C251.719 191.489 251.496 191.853 251.4 191.862ZM252.477 187.195C245.568 185.005 238.638 182.665 231.653 180.732C227.306 179.529 216.255 177.899 219.805 176.783L253.015 186.656L252.477 187.195ZM253.733 182.348C248.762 180.607 222.43 175.999 220.882 175.347C220.152 175.039 220.222 174.302 220.882 173.911C222.673 175.318 254.533 180.846 253.733 182.348ZM235.962 174.27C235.001 174.1 219.572 172.481 221.6 171.397C223.073 170.611 250.557 176.694 254.452 177.321C254.556 178.439 237.494 174.539 235.962 174.27ZM254.452 172.654L223.037 169.602C222.465 169.296 222.436 168.717 223.037 168.525C224.481 168.063 251.728 171.372 253.195 171.756C253.597 171.862 254.683 172.278 254.452 172.654ZM253.195 167.089C253.372 167.13 254.667 167.587 254.452 167.987C250.592 167.161 225.761 167.141 224.473 166.371C224.182 166.197 224.182 165.468 224.473 165.294C230.958 166.229 250.124 166.378 253.195 167.089ZM226.268 161.704C227.553 161.367 251.535 161.793 252.836 162.063C253.035 162.104 254.208 162.625 254.452 162.96C254.428 164.407 227.741 161.829 225.55 162.781C225.184 162.603 226.176 161.728 226.268 161.704ZM253.554 158.831C252.361 159.306 231.477 158.682 227.883 159.011C227.838 158.936 229.007 158.147 229.14 158.113C229.977 157.903 244.403 157.076 246.373 157.036C249.501 156.972 257.504 157.258 253.554 158.831ZM252.477 150.574C252.776 150.67 253.412 152.447 253.374 152.548C252.982 153.606 233.893 154.416 231.115 155.062C230.685 154.3 233.068 153.547 233.448 153.446C234.378 153.199 251.561 150.279 252.477 150.574ZM251.759 146.983C246.542 147.582 228.775 151.244 234.884 148.06C235.584 147.696 249.535 144.794 250.323 144.829C251.809 144.896 252.662 146.492 251.759 146.983ZM249.246 138.726C249.616 138.808 250.767 140.397 250.323 140.88C249.798 141.45 236.018 144.506 235.243 144.47C229.158 144.187 248.382 138.534 249.246 138.726ZM247.81 135.135C246.862 135.759 232.721 139.693 232.551 138.905C232.552 138.552 232.451 138.303 232.73 138.008C233.226 137.484 245.653 133.344 246.373 133.34C247.866 133.332 248.672 134.568 247.81 135.135ZM245.655 129.391C245.25 130.048 231.743 135.046 231.115 134.597C231.049 134.55 230.681 133.552 231.294 132.981C231.819 132.493 243.869 127.492 244.578 127.596C244.682 127.611 246.068 128.722 245.655 129.391ZM242.424 124.365C214.12 136.895 239.892 122.207 241.347 122.21C242.082 122.212 243.374 124.124 242.424 124.365ZM239.372 118.441C239.414 119.139 228.645 124.886 227.524 124.185C227.355 123.537 237.47 117.14 238.116 117.184C238.204 117.19 239.367 118.352 239.372 118.441ZM234.525 112.517C235.036 112.5 236.18 113.556 235.962 113.953C235.682 114.46 226.479 119.795 225.909 119.697C225.796 119.678 225.584 119.315 225.37 119.159C226.294 118.12 233.96 112.535 234.525 112.517ZM223.934 114.132C223.544 113.503 230.46 107.822 230.935 107.849C234.953 108.082 225.318 114.343 223.934 114.132ZM226.627 103.9C230.73 103.173 222.741 109.387 222.318 109.285C220.613 108.876 226.246 103.967 226.627 103.9ZM223.037 99.9507C225.513 99.9636 221.177 103.875 220.164 104.259C218.919 104.066 222.744 99.9492 223.037 99.9507ZM219.446 96.3603C222.19 96.1263 216.733 101.108 216.215 101.028C214.907 101.265 219.13 96.3874 219.446 96.3603ZM214.779 93.1292C215.405 93.0255 215.366 93.4241 215.317 94.0268C215.162 95.9675 209.716 100.538 214.779 93.1292ZM209.393 89.8978C210.541 89.1897 212.266 92.5506 210.111 91.693C209.631 91.5017 209.247 89.988 209.393 89.8978ZM215.676 109.824C217.002 111.896 219.883 120.458 219.267 123.108C220.049 123.932 220.122 121.478 220.882 121.492C221.892 121.511 225.821 135.148 226.447 137.11C227.574 140.641 230.296 143.026 228.602 148.599C228.129 150.154 221.044 158.051 218.549 156.857C225.638 160.273 209.135 155.253 219.626 159.729C213.809 161.331 220.155 160.758 218.01 162.063C216.91 162.732 213.233 162.157 213.163 162.601L216.215 163.14V163.858C211.472 163.84 218.299 164.58 215.497 166.012C212.489 167.549 210.209 164.991 215.318 167.986C204.496 170.482 220.556 168.439 211.009 171.218L213.343 171.397C211.222 174.233 204.773 174.761 212.266 173.551C211.14 175.511 208.403 176.225 206.342 176.962L210.65 177.321C210.62 179.097 196.164 180.682 208.137 180.193C205.973 181.497 204.211 182.576 201.675 183.066C207.253 183.141 206.95 184.359 201.854 185.04C198.41 185.501 196.517 183.726 202.213 186.476C199.627 188.038 195.417 187.313 195.212 187.733C197.484 189.385 201.816 188.988 199.7 189.708C196.783 190.7 186.878 188.966 193.596 191.144C195.253 191.681 199.65 191.778 194.674 192.58C190.456 193.259 188.236 190.624 191.801 194.016L186.416 193.657L188.929 195.093C183.314 195.518 174.569 190.696 185.698 196.888C181.94 197.195 174.121 190.85 177.44 194.375C177.935 194.901 180.332 196.229 181.21 196.709C180.443 198.3 170.011 191.442 167.746 185.758C168.525 189.574 173.506 194.839 176.543 197.427C169.758 196.088 163.937 181.131 167.567 190.605C173.625 197.986 172.224 198.566 167.567 192.401C164.062 187.76 160.013 177.072 165.054 190.246C163.917 192.861 159.621 174.373 160.386 181.271C160.491 182.218 161.712 185.727 162.181 187.015C161.369 189.028 158.358 177.322 158.232 175.167C157.8 167.764 160.524 162.226 163.797 155.959C161.23 167.168 161.029 164.455 164.336 158.293C170.452 146.892 164.724 160.745 164.336 164.037C164.173 165.416 164.442 180.394 165.592 180.373C164.493 166.14 167.739 157.021 176.722 146.265C178.016 146.5 174.541 151.416 173.311 154.702C173.108 155.245 171.307 160.872 171.696 160.985L179.953 146.265L180.492 146.445C176.023 164.025 177.9 157.004 183.185 145.547C183.463 147.54 182.218 153.548 182.287 153.984C182.729 156.775 183.228 150.886 183.364 150.394C186.28 139.885 185.998 149.873 186.236 154.702H186.954C186.717 153.308 186.746 151.015 186.954 149.676C189.277 134.763 188.723 148.583 190.724 154.523C191.225 154.443 190.662 147.969 190.904 146.445C191.697 141.441 192.514 148.148 193.776 151.471C197.606 161.557 194.498 151.368 194.135 147.881C193.319 140.049 195.483 148.44 199.161 153.625C204.061 160.535 199.372 152.894 198.802 151.471C198.481 150.67 196.342 143.252 196.828 143.034C198.876 149.001 203.648 153.317 209.035 156.318C204.579 151.86 201.092 149.087 199.52 142.496C202.82 147.916 207.488 150.136 213.702 150.574C214.954 149.963 210.92 149.355 210.471 149.138C204.864 146.429 201.6 140.533 204.726 143.393C206.46 143.634 211.391 143.021 212.984 142.316C215.899 141.025 210.637 142.033 209.394 141.957C203.11 141.574 210.226 140.352 214.241 137.469C212.378 137.184 210.459 139.291 208.676 139.444C202.998 139.929 208.503 138.057 210.112 136.931C215.656 133.046 214.084 132.98 207.957 136.931C201.789 137.991 210.026 135.194 212.804 131.007C215.874 126.381 208.851 135.522 204.547 134.597C208.087 132.2 211.88 127.237 212.804 123.108C214.433 115.835 210.088 131.436 201.854 132.981C198.154 133.675 206.938 130.277 207.24 124.364C204.346 132.48 192.982 131.639 200.777 129.032C205.748 123.234 199.271 129.82 197.905 129.75C196.732 129.69 201.382 126.538 197.187 129.032C194.285 127.427 189.809 132.014 194.315 126.878C182.738 134.781 168.963 126.616 170.798 112.337C174.319 105.042 170.551 113.386 172.234 118.799C173.846 123.98 190.83 123.847 191.981 118.441C192.41 116.424 191.967 108.903 190.904 106.593C191.088 106.111 200.042 105.368 201.136 105.336C206.917 105.168 212.276 104.508 215.676 109.824ZM189.826 113.773C190.045 115.353 190.271 120.932 188.031 119.877C185.924 104.271 188.029 119.499 186.775 120.056C180.909 119.617 173.322 123.45 172.593 114.85C172.061 108.576 175.091 107.805 180.671 107.49C185.698 107.206 188.947 107.435 189.826 113.773ZM187.493 106.413C191.927 104.83 190.696 110.716 191.083 113.235C189.991 111.549 186.527 106.758 187.493 106.413ZM181.748 79.127C184.536 77.56 182.444 80.7133 181.748 79.8451C181.522 79.5636 181.399 79.3232 181.748 79.127ZM180.312 78.0499C180.589 78.0474 180.59 79.8464 180.312 79.8451C180.035 79.8436 180.034 78.0525 180.312 78.0499ZM192.519 80.9221C195.417 81.214 202.054 85.282 203.47 87.9231C205.953 92.5559 205.754 93.4404 202.392 88.1027C201.01 89.8336 203.728 93.2928 204.188 95.8217C199.767 93.2119 203.472 96.1538 203.829 97.9759C205.029 104.112 200.537 95.5281 198.802 97.2578C200.096 97.6676 204.083 101.168 202.572 102.105L180.851 103.002C181.492 97.4882 180.599 92.0012 183.005 86.846C174.83 90.0805 185.594 80.2247 192.519 80.9221ZM176.722 77.6909C177.015 77.6929 176.879 78.6855 176.901 79.3066C177.023 82.6319 175.719 81.5079 176.722 77.6909ZM172.772 77.6909C173.03 77.9504 173.024 78.6173 172.952 78.9475C172.591 80.593 171.572 79.6453 172.772 77.6909ZM168.823 77.6909C169.19 77.8048 169.128 79.0266 168.464 78.7681C167.919 78.5558 168.699 77.6523 168.823 77.6909ZM161.643 77.3318C161.69 77.309 162.169 78.1784 162.181 78.2294C163.008 81.7375 160.601 77.8368 161.643 77.3318ZM157.693 77.6909C158.229 77.4864 158.358 78.5319 158.591 79.3066C159.779 83.2636 157.355 79.7953 157.693 77.6909ZM167.746 83.4353C169.032 83.5221 171.396 84.8959 172.593 85.5895C172.633 85.6126 172.772 85.5634 173.311 85.9486C177.122 88.6703 178.203 91.7776 174.388 90.0774C174.982 90.9929 177.888 94.7566 176.722 95.6424C173.67 93.5961 177.736 97.381 176.363 97.4375C172.439 94.6217 177.563 99.3075 176.363 99.9507C173.269 95.9607 175.962 100.459 176.542 102.284C176.249 103.37 172.183 103.087 169.541 104.618C162.306 108.811 164.862 123.129 169.003 128.852C173.372 134.893 181.436 134.519 172.772 137.29C170.62 137.978 162.901 138.606 162.135 139.434C162.286 139.629 162.463 139.81 162.664 139.975C163.16 140.148 163.986 140.329 165.233 140.521C168.523 141.027 176.726 139.083 177.799 135.135L178.337 135.674C175.999 141.292 166.024 142.736 162.664 139.975C162.118 139.785 161.977 139.605 162.135 139.434C161.625 138.772 161.42 137.939 161.643 136.931C181.201 134.234 176.579 134.367 160.386 136.392C160.412 136.075 160.249 135.739 160.566 135.495C161.193 135.01 177.114 131.713 160.566 135.135C157.695 134.498 155.081 100.472 156.078 92.5906C156.224 91.4374 159.07 87.6633 153.744 93.8473C151.777 92.7847 162.381 83.0731 167.746 83.4353ZM153.923 78.9475C155.677 82.8184 153.858 86.0307 153.026 78.0499C153.422 77.897 153.816 78.7104 153.923 78.9475ZM148.718 78.7679L150.154 84.8715C149.456 84.4034 147.441 78.4706 148.718 78.7679ZM144.589 81.1016C146.88 85.1751 144.78 88.5813 143.691 80.2041C144.143 80.0881 144.372 80.7162 144.589 81.1016ZM139.024 81.2812L140.998 85.051C140.759 87.2616 137.392 81.3252 139.024 81.2812ZM134.356 83.0764C134.843 83.0397 135.937 85.6161 135.972 85.7691C136.971 90.095 132.75 83.2941 134.356 83.0764ZM130.228 85.41C132.209 86.7309 132.233 95.1505 129.33 85.2304C129.694 85.1897 129.904 85.1945 130.228 85.41ZM130.228 97.976C131.136 96.4854 138.137 91.1981 139.742 90.9749C144.049 90.3759 154.888 95.5543 148.538 94.0266C149.025 94.6769 150.51 95.7706 150.692 96.1808C152.114 99.3894 146.25 93.4625 146.743 95.4627C146.829 95.8114 150.134 98.135 151.051 101.207C151.25 101.872 150.524 102.275 150.692 103.002C152.565 111.093 151.348 109.81 151.41 110.183C151.454 110.442 153.357 112.939 153.026 115.03C149.373 110.36 153.004 115.325 153.206 116.286C153.447 117.441 151.802 115.472 152.128 116.645C152.163 116.77 153.394 118.241 153.565 118.8H152.128L154.283 122.749C150.642 121.627 153.679 123.317 154.642 125.262L154.462 125.801C149.146 120.635 158.404 131.145 152.846 127.057C158.86 134.449 149.044 126.15 155.36 132.084C158.594 139.524 159.007 145.574 149.077 146.265C142.849 146.699 140.886 140.081 137.767 131.007C135.864 125.47 129.511 104.834 132.023 100.848C129.85 100.261 126.913 107.363 130.228 97.976ZM132.741 125.262C127.397 122.386 135.786 129.714 131.484 126.519C130.522 126.883 133.718 128.657 134.177 131.366C130.125 129.146 136.464 133.661 135.075 134.417C128.013 127.224 137.661 137.638 137.767 138.905C137.924 140.789 136.608 140.582 135.254 141.418C144.098 140.253 133.748 153.627 125.56 147.522C134.086 143.629 125.456 147.052 125.022 146.983C120.902 146.334 133.745 140.923 123.586 144.829L122.688 144.291C122.635 142.309 103.611 114.835 108.865 114.671C108.742 115.34 108.83 116.814 109.045 117.363C111.347 123.246 108.822 114.384 109.404 111.978C109.973 109.624 116.724 104.008 120.713 103.541C122.588 103.322 124.452 103.787 126.278 104.08C124.898 105.178 126.928 106.86 127.714 108.747H124.483C130.582 113.463 129.317 118.936 132.741 125.262ZM125.022 87.3847C125.294 87.4107 127.857 92.0702 127.176 92.4111C126.158 92.0182 123.069 87.1977 125.022 87.3847ZM119.995 90.2569C120.522 90.1278 123.441 94.4651 123.406 94.7448C123.146 96.8452 118.492 90.6252 119.995 90.2569ZM115.687 93.1292C116.396 93.0817 118.295 96.2254 118.2 97.0785C116.874 97.0174 113.773 93.2575 115.687 93.1292ZM111.379 96.3603C111.987 96.4807 114.004 99.2201 114.071 99.4121C115.261 102.805 109.536 96.7216 111.379 96.3603ZM107.07 99.9507C107.746 99.8468 110.105 102.787 110.122 103.002C110.329 105.615 104.633 100.326 107.07 99.9507ZM102.762 103.541C103.079 103.539 107.284 107.713 107.25 108.029C107.037 109.991 99.7076 103.556 102.762 103.541ZM98.4536 107.849C99.1049 107.669 104.433 112.037 104.378 113.414C103.33 113.16 96.6151 108.358 98.4536 107.849ZM95.2224 112.158C95.7783 112.074 103.146 118.139 104.019 119.159C103.934 120.225 94.4102 113.988 94.3248 113.414C94.2718 113.059 95.0127 112.189 95.2224 112.158ZM91.632 117.184C92.309 117.089 102.978 123.542 103.48 124.006C107.846 128.034 90.9621 119.371 90.555 118.62C90.3552 118.252 91.5432 117.197 91.632 117.184ZM88.4008 122.21C89.179 121.955 102.508 128.848 103.121 129.391C103.611 129.825 104.175 130.223 104.019 131.007C102.126 130.116 83.9885 123.657 88.4008 122.21ZM85.5286 127.596C86.4609 127.34 102.694 134.213 103.48 134.776C104.028 135.169 103.949 135.657 104.378 136.033C104.002 136.67 103.386 136.354 102.762 136.213C101.825 136 85.4238 130.13 84.8104 129.391C84.296 128.771 85.0984 127.714 85.5286 127.596ZM83.3744 132.981C86.8514 134.742 102.468 139.451 103.48 140.162C104.029 140.547 103.948 141.046 104.378 141.418C101.472 140.739 83.5863 135.778 82.6564 135.135C81.494 134.332 82.5651 133.847 83.3744 132.981ZM80.8612 138.726C85.958 140.722 100.4 143.669 103.121 144.829C103.898 145.161 104.778 145.315 104.737 146.086C101.07 145.645 82.3329 141.69 81.2203 141.239C79.4777 140.532 79.6824 140.188 80.8612 138.726ZM79.066 144.829C80.3436 144.367 102.609 149.647 105.455 150.753C105.031 151.352 104.801 151.264 104.198 151.292C102.907 151.351 83.4535 147.003 78.707 146.984C77.7278 146.511 78.6134 144.993 79.066 144.829ZM77.989 150.574C87.3911 152.599 97.3311 152.754 106.532 155.062C106.518 156.534 79.6169 152.388 77.2709 153.087L77.989 150.574ZM76.9119 157.036C78.7985 156.461 103.194 158.062 107.25 159.011C104.113 158.822 76.2243 159.49 76.0142 157.934C76.3272 157.708 76.7255 157.093 76.9119 157.036ZM76.5528 162.063C77.5306 161.704 94.5873 161.734 97.3765 161.704C102.233 161.65 109.869 161.228 107.788 162.781C104.708 161.655 76.3913 164.506 76.0142 162.96C75.9352 162.636 76.3133 162.15 76.5528 162.063ZM106.711 164.935C107.958 164.947 109.637 164.529 108.865 166.012C106.313 165.101 75.6617 169.295 75.6553 167.628C82.766 166.906 101.609 164.887 106.711 164.935ZM75.6553 172.654C75.5055 172.203 76.5629 171.871 76.9118 171.756C79.2129 170.999 102.811 169.53 109.224 167.807L109.583 168.884C105.006 168.468 77.8325 173.578 76.1938 173.193C76.0675 173.163 75.8651 172.802 75.6553 172.654ZM109.583 170.679C111.744 170.943 110.039 171.753 108.865 172.115C105.271 173.224 83.9896 175.477 76.5528 177.86L76.0143 177.321C86.7427 174.305 98.5738 173.552 109.583 170.679ZM76.3733 181.989C80.8274 181.183 108.563 173.372 110.302 173.552C110.94 173.618 111.406 174.165 111.199 174.449C106.356 174.729 79.0104 182.656 77.2709 182.527C76.7785 182.491 76.6704 182.332 76.3733 181.989ZM111.379 176.065C112.059 176.544 112.121 177.049 111.379 177.501C109.859 178.426 81.6599 185.343 77.0914 187.015C87.939 182.534 100.203 180.335 111.379 176.065ZM77.8094 191.682L112.097 178.937C112.483 178.993 113 179.821 112.097 180.373C110.569 181.306 83.1416 188.92 78.3479 192.221L77.8094 191.682ZM112.815 181.45C113.586 182.234 114.01 182.271 113.174 182.886L79.2455 196.35C89.6161 190.517 101.985 187.059 112.815 181.45ZM80.3227 200.658C84.6972 199.044 111.683 184.382 113.533 184.322C118.224 184.171 107.677 188.007 106.352 188.631C97.7919 192.658 89.2675 196.855 80.8613 201.197L80.3227 200.658ZM114.61 186.836C115.267 186.826 115.667 187.574 114.969 188.272C113.914 189.326 95.8 198.032 86.8685 202.799L82.4768 205.326C83.2382 204.787 84.8093 203.898 86.8685 202.799L114.61 186.836ZM84.272 209.275L115.687 189.708C116.693 189.795 116.233 190.776 115.687 191.144C110.388 193.287 87.1835 208.844 85.5286 209.454C84.9833 209.656 84.6919 209.938 84.272 209.275ZM116.764 192.58L117.482 193.657L86.7852 213.942C96.0088 206.069 106.995 199.95 116.764 192.58ZM118.2 195.093C118.28 195.092 119.483 196.101 118.918 196.529L89.2984 217.892L118.2 195.093ZM92.3501 222.38L91.8116 221.841C95.5385 219.449 117.499 198.649 119.277 198.325C121.217 197.971 119.534 199.512 118.559 200.479C114.623 204.381 98.3192 216.094 92.3501 222.38ZM120.354 201.556C120.438 201.556 120.674 201.925 120.893 202.094C112.321 210.074 103.82 218.333 95.0427 226.149C97.8329 223.351 118.588 201.543 120.354 201.556Z" fill="#000101"/>
<path d="M107.788 251.461C72.5594 225.712 59.3978 186.803 68.6537 144.111C55.9996 187.956 76.0128 235.191 115.686 257.205C116.88 256.748 109.679 252.843 107.788 251.461Z" fill="#000101"/>
<path d="M262.351 192.76C257.669 206.436 256.935 214.038 261.633 198.145C268.817 173.841 266.802 144.105 253.555 122.211C264.686 144.336 267.636 168.462 262.351 192.76Z" fill="#000101"/>
<path d="M159.128 67.9975C186.598 66.4093 212.654 76.9607 232.908 94.9246C211.449 73.2794 174.711 61.9508 144.767 69.4336C133.908 72.1469 154.97 68.2379 159.128 67.9975Z" fill="#000101"/>
<path d="M118.561 257.923C136.514 270.444 167.38 274.034 188.392 267.438C164.541 272.4 139.874 269.898 118.561 257.923Z" fill="#000101"/>
<path d="M213.523 257.025C223.301 252.53 232.568 245.54 238.835 236.74C231.418 244.799 223.094 251.646 213.523 257.025Z" fill="#000101"/>
<path d="M123.946 76.9731C121.424 76.9211 102.432 89.3907 100.07 92.9498C106.933 86.47 122.81 78.5423 123.946 77.6911C124.476 77.2942 124.747 76.9896 123.946 76.9731Z" fill="#000101"/>
<path d="M73.6819 129.032C77.9673 119.689 83.8247 111.231 90.3767 103.362L89.838 103.182C87.7713 104.057 71.4496 128.533 73.6819 129.032Z" fill="#000101"/>
<path d="M232.91 94.9243C239.758 101.831 245.496 109.576 251.041 117.543C246.667 108.849 240.154 101.349 232.91 94.9243Z" fill="#000101"/>
<path d="M162.18 78.2298C162.168 78.1788 161.688 77.3094 161.641 77.3322C160.6 77.8372 163.007 81.7379 162.18 78.2298Z" fill="#000101"/>
<path d="M172.951 78.9477C173.023 78.6175 173.029 77.9505 172.771 77.6912C171.571 79.6455 172.59 80.5932 172.951 78.9477Z" fill="#000101"/>
<path d="M181.747 79.127C181.398 79.3233 181.521 79.5636 181.747 79.8451C182.444 80.7133 184.535 77.56 181.747 79.127Z" fill="#000101"/>
<path d="M168.463 78.7683C169.127 79.0269 169.189 77.8052 168.822 77.6911C168.697 77.6526 167.918 78.5561 168.463 78.7683Z" fill="#000101"/>
<path d="M180.312 79.8452C180.589 79.8466 180.589 78.0476 180.312 78.0501C180.034 78.0526 180.034 79.8438 180.312 79.8452Z" fill="#000101"/>
<path d="M207.958 106.414C207.68 106.458 207.747 108.655 207.778 109.106C208.11 113.963 209.143 107.958 207.958 106.414Z" fill="#000101"/>
<path d="M227.167 148.599C227.343 148.369 228.286 146.834 227.705 146.625C223.499 150.94 225.805 150.384 227.167 148.599Z" fill="#000101"/>
<path d="M221.959 126.16C222.358 125.924 222.241 124.387 221.6 124.724C221 125.039 221.793 126.258 221.959 126.16Z" fill="#000101"/>
<path d="M134.535 251.461V251.82C137.566 252.807 136.928 252.709 134.535 251.461Z" fill="#000101"/>
<path d="M161.283 210.891C164.527 219.367 161.402 224.926 162.001 233.15C164.27 226.236 168.186 216.223 161.283 210.891Z" fill="#000101"/>
<path d="M181.747 211.609C181.277 211.676 176.958 213.635 177.259 214.302C179.879 213.333 184.101 211.273 181.747 211.609Z" fill="#000101"/>
<path d="M180.671 215.199C179.075 215.533 174.445 220.793 181.569 215.379C181.463 215.122 180.918 215.148 180.671 215.199Z" fill="#000101"/>
<path d="M180.314 219.148C178.357 220.086 175.758 223.88 179.237 220.943C179.928 220.36 180.842 219.539 180.314 219.148Z" fill="#000101"/>
<path d="M144.59 144.65C149.16 147.355 160.557 139.878 156.258 140.162C155.635 140.203 147.449 144.284 144.59 144.65Z" fill="#000101"/>
<path d="M140.819 99.5917C140.563 99.6366 137.325 101.036 138.305 101.387C147.282 101.278 145.977 98.6878 140.819 99.5917Z" fill="#000101"/>
<path d="M156.078 136.751C156.302 136.25 154.154 131.846 153.385 132.263C153.429 133.952 154.105 134.994 155.36 136.033C150.009 138.482 151.462 138.439 156.078 136.751Z" fill="#000101"/>
<path d="M139.741 93.8474C138.368 94.0169 133.698 96.4618 132.381 97.6172C136.216 95.7717 144.047 93.3157 139.741 93.8474Z" fill="#000101"/>
<path d="M152.846 139.803L152.487 139.444C139.488 142.954 141.058 143.828 152.846 139.803Z" fill="#000101"/>
<path d="M144.589 96.181L139.742 96.0015C130.54 100.065 140.165 95.9966 144.589 96.181Z" fill="#000101"/>
<path d="M156.436 137.829L152.486 139.444L152.845 139.803L156.436 137.829Z" fill="#000101"/>
<path d="M136.512 143.393C136.073 143.474 130.115 147.465 128.793 147.881C129.294 149.333 141.979 142.384 136.512 143.393Z" fill="#000101"/>
<path d="M133.997 135.495C133.744 135.633 133.754 136.149 133.817 136.392C134.202 137.882 139.796 140.845 133.997 135.495Z" fill="#000101"/>
<path d="M115.688 108.208C115.056 108.316 112.16 109.857 112.277 110.183C114.263 109.701 119.52 107.555 115.688 108.208Z" fill="#000101"/>
<path d="M118.559 113.594C118.452 113.611 116.78 114.133 117.482 114.671C121.498 114.165 121.811 113.066 118.559 113.594Z" fill="#000101"/>
<path d="M131.125 122.57L130.766 122.211V122.929H131.125V122.57Z" fill="#000101"/>
<path d="M173.31 85.9487C172.77 85.5635 172.632 85.6127 172.592 85.5896L175.644 89.8979C176.715 89.4292 173.652 86.5395 173.31 85.9487Z" fill="#000101"/>
<path d="M164.516 92.4113C159.686 93.342 162.961 95.7856 170.081 92.9498C170.06 92.3026 165.145 92.2901 164.516 92.4113Z" fill="#000101"/>
<path d="M165.951 85.9488C165.031 86.0189 159.865 87.7935 160.027 88.2825L167.746 86.3078C171.476 88.5251 170.934 85.57 165.951 85.9488Z" fill="#000101"/>
<path d="M165.951 88.4619C165.844 88.4809 164.604 89.0924 163.977 89.3594C167.94 89.4578 169.162 87.8891 165.951 88.4619Z" fill="#000101"/>
<path d="M191.44 89.1798C191.37 89.1943 190.666 89.6862 190.184 89.7183C202.676 93.403 197.234 87.9751 191.44 89.1798Z" fill="#000101"/>
<path d="M201.314 86.667H201.674C200.306 85.0705 200.185 84.8075 201.314 86.667Z" fill="#000101"/>
<path d="M201.314 86.6667C201.361 86.7434 201.145 87.5328 202.392 88.1029C202.349 88.035 202.502 87.6335 201.674 86.6667H201.314Z" fill="#000101"/>
</svg>
